<svg width="64" height="116" viewBox="0 0 64 116" fill="none" xmlns="http://www.w3.org/2000/svg">
<path d="M64 1.49708C64 1.8963 63.9501 2.27057 63.8503 2.61988C63.8004 2.9692 63.8253 3.34347 63.9251 3.74269C62.3782 4.69084 61.3053 5.9384 60.7064 7.48538C59.908 7.8846 59.2593 8.43353 58.7602 9.13216C58.2612 9.7809 57.7871 10.4795 57.338 11.2281C56.9388 11.9267 56.5146 12.6253 56.0655 13.324C55.6164 13.9727 55.0175 14.5216 54.269 14.9708V16.6175C53.8698 16.5177 53.5953 16.5676 53.4456 16.7673C53.3458 16.917 53.1711 17.0417 52.9216 17.1415C51.9236 19.0378 50.9006 20.9341 49.8526 22.8304C48.8047 24.6768 47.5072 26.3485 45.9602 27.8456C45.561 28.8936 45.1119 29.9166 44.6129 30.9146C44.1138 31.9127 43.5899 32.9107 43.0409 33.9088C42.492 34.9068 41.968 35.9049 41.469 36.9029C40.97 37.901 40.5708 38.924 40.2713 39.9719C39.2733 41.0199 38.4249 42.1926 37.7263 43.4901C37.0277 44.7376 36.354 46.0101 35.7053 47.3076C35.1064 48.5552 34.4327 49.8027 33.6842 51.0503C32.9856 52.2979 32.1372 53.4456 31.1392 54.4936C31.1891 54.9427 31.1142 55.317 30.9146 55.6164C30.715 55.9158 30.6152 56.2402 30.6152 56.5895C30.6152 57.7372 31.1641 59.0347 32.262 60.4819C33.4097 61.8791 34.7571 63.3014 36.3041 64.7485C37.8511 66.1458 39.398 67.4433 40.945 68.6409C42.492 69.8386 43.6897 70.7618 44.538 71.4105C45.8355 70.8616 46.9832 70.3127 47.9813 69.7637C48.9793 69.1649 50.177 68.8156 51.5743 68.7158C52.2729 69.0651 52.8218 69.5392 53.2211 70.138C53.6702 70.6869 53.8947 71.3357 53.8947 72.0842C53.8947 73.232 53.5454 74.3298 52.8468 75.3778C52.1481 76.3758 51.3747 77.1992 50.5263 77.848C49.7279 77.9977 48.9294 78.1224 48.131 78.2222C47.3326 78.322 46.5341 78.3719 45.7357 78.3719C44.1388 78.3719 42.5419 78.2222 40.945 77.9228C39.398 77.5735 37.8511 77.1992 36.3041 76.8C35.4557 75.7021 34.5076 74.754 33.4596 73.9556C32.4616 73.1072 31.3388 72.4335 30.0912 71.9345C30.0413 71.3357 29.8916 70.8366 29.6421 70.4374C29.3926 70.0382 29.0932 69.6889 28.7439 69.3895C28.3945 69.0402 27.9953 68.7407 27.5462 68.4912C27.147 68.2417 26.7478 67.9672 26.3485 67.6678C25.8495 67.8175 25.4004 68.0421 25.0012 68.3415C24.6019 68.591 24.1528 68.7906 23.6538 68.9403C22.7057 71.2359 21.4331 73.3817 19.8363 75.3778C19.9361 76.276 19.7614 76.9747 19.3123 77.4737C18.9131 77.9228 18.3891 78.3969 17.7404 78.8959C17.4908 80.3431 17.0168 81.6405 16.3181 82.7883C15.6694 83.9361 14.8959 85.0589 13.9977 86.1567L14.0725 86.7556C14.0725 86.9552 13.9977 87.1298 13.848 87.2795C13.7481 87.4292 13.7232 87.6787 13.7731 88.0281C13.0246 88.9263 12.4008 89.9493 11.9018 91.0971C11.4027 92.2947 10.9287 93.5173 10.4795 94.7649C10.0803 96.0125 9.68109 97.26 9.28187 98.5076C8.93255 99.7552 8.53333 100.928 8.08421 102.026C8.28382 102.475 8.38363 102.999 8.38363 103.598C8.38363 104.147 8.33372 104.696 8.23392 105.244C8.13411 105.793 8.08421 106.342 8.08421 106.891C8.08421 107.34 8.15906 107.765 8.30877 108.164C8.45848 108.613 8.73294 108.987 9.13216 109.287C9.73099 108.738 10.5045 108.463 11.4526 108.463C12.0016 108.463 12.5255 108.538 13.0246 108.688C13.5735 108.837 14.0725 109.037 14.5216 109.287C14.7212 109.686 14.8211 110.035 14.8211 110.334C14.8211 110.684 14.7212 110.983 14.5216 111.233C14.3719 111.532 14.1723 111.807 13.9228 112.056C13.7232 112.356 13.4986 112.63 13.2491 112.88C13.0495 113.129 12.9248 113.428 12.8749 113.778C11.7271 113.878 10.5793 114.052 9.43158 114.302C8.33372 114.551 7.26082 114.926 6.21287 115.425C5.61403 115.325 5.06511 115.1 4.56608 114.751C4.11696 114.451 3.59298 114.227 2.99415 114.077C2.34542 113.229 1.84639 112.306 1.49708 111.308C1.09786 110.31 0.59883 109.361 0 108.463C0 107.315 0.149708 106.168 0.449123 105.02C0.748538 103.922 1.0729 102.824 1.42222 101.726C1.72164 100.628 1.9961 99.5056 2.24561 98.3579C2.49513 97.26 2.56998 96.1372 2.47018 94.9895C2.9692 94.74 3.36842 94.3407 3.66784 93.7918C3.96725 93.2928 4.19181 92.7189 4.34152 92.0702C4.54113 91.4713 4.71579 90.8476 4.8655 90.1988C5.0152 89.6 5.18986 89.0511 5.38947 88.552C5.9384 88.2027 6.33762 87.7536 6.58713 87.2047C6.88655 86.7056 7.31072 86.2815 7.85965 85.9322C7.85965 85.8324 7.8347 85.7326 7.7848 85.6327C7.7848 85.5828 7.7848 85.508 7.7848 85.4082C7.73489 85.3084 7.68499 85.2335 7.63509 85.1836C7.58518 85.1836 7.56023 85.1337 7.56023 85.0339C7.56023 84.9341 7.53528 84.8343 7.48538 84.7345C7.48538 84.6846 7.51033 84.6097 7.56023 84.5099L8.30877 83.5368C9.00741 82.6386 9.53138 81.8152 9.8807 81.0667C10.23 80.2682 10.6292 79.37 11.0784 78.3719C11.4776 77.4238 11.9766 76.4756 12.5754 75.5275C13.1743 74.5793 13.7481 73.6312 14.2971 72.683C15.5945 70.3376 16.8421 68.0172 18.0398 65.7216C19.2873 63.3762 20.6097 61.0557 22.007 58.7602C21.6078 58.4608 21.2834 58.1115 21.0339 57.7123C20.7844 57.2632 20.5349 56.814 20.2854 56.3649C20.0858 55.9158 19.8612 55.4916 19.6117 55.0924C19.3622 54.6433 19.0129 54.269 18.5637 53.9696C17.5158 51.2249 16.3181 48.5552 14.9708 45.9602C13.6733 43.3154 12.4008 40.6955 11.1532 38.1006C10.7041 37.1524 10.2799 36.2043 9.8807 35.2561C9.53138 34.2581 9.10721 33.3349 8.60819 32.4865C8.45848 32.237 8.28382 32.1372 8.08421 32.1871C7.8846 32.237 7.70994 32.1622 7.56023 31.9626C7.16101 30.8148 6.8117 29.7918 6.51228 28.8936L5.38947 25.5251C5.58908 24.5271 6.03821 23.8035 6.73684 23.3544C7.43548 22.9053 8.25887 22.6807 9.20702 22.6807C9.95556 22.6807 10.754 22.8055 11.6023 23.055C12.0515 23.554 12.4756 24.1029 12.8749 24.7018C13.2741 25.2507 13.7481 25.7747 14.2971 26.2737V28.2199C15.7442 31.1641 17.0916 34.1084 18.3392 37.0526C19.6366 39.9969 21.0339 42.9411 22.531 45.8854C23.0799 45.9852 23.529 46.2097 23.8784 46.5591C24.2277 46.9084 24.552 47.2826 24.8515 47.6819C25.1509 48.0811 25.4503 48.4554 25.7497 48.8047C26.099 49.154 26.5731 49.3536 27.1719 49.4035C27.3715 49.3037 27.671 48.9793 28.0702 48.4304C28.4694 47.8316 28.8686 47.2078 29.2678 46.5591C29.717 45.8604 30.0912 45.1867 30.3906 44.538C30.74 43.8893 30.9146 43.4402 30.9146 43.1906V42.6667C34.2082 38.1255 36.9778 33.3099 39.2234 28.2199C39.7224 27.9704 40.1216 27.646 40.4211 27.2468C40.7205 26.7977 40.9949 26.3485 41.2444 25.8994C41.5439 25.4004 41.8433 24.9263 42.1427 24.4772C42.4421 24.0281 42.8164 23.6538 43.2655 23.3544C43.515 22.3064 43.9142 21.3333 44.4632 20.4351C45.0121 19.5368 45.586 18.6386 46.1848 17.7404C46.7836 16.8421 47.3575 15.9439 47.9064 15.0456C48.4554 14.0975 48.8795 13.0994 49.1789 12.0515C49.7279 11.8519 50.152 11.5275 50.4515 11.0784C50.8008 10.6292 51.1002 10.1552 51.3497 9.65614C51.5992 9.15711 51.8737 8.68304 52.1731 8.23392C52.4725 7.7848 52.8967 7.46043 53.4456 7.26082C53.7949 5.61403 54.4686 4.26667 55.4667 3.21871C56.4647 2.17076 57.7622 1.37232 59.3591 0.823392L59.6585 0C59.8581 0.0998051 60.2074 0.19961 60.7064 0.299415C61.2055 0.349318 61.6795 0.424172 62.1287 0.523977C62.6277 0.573879 63.0518 0.673684 63.4012 0.823392C63.8004 0.973099 64 1.19766 64 1.49708Z" fill="white"/>
</svg>
