<svg width="87" height="104" viewBox="0 0 87 104" fill="none" xmlns="http://www.w3.org/2000/svg">
<path d="M86.2376 44.9637C86.2376 48.2244 86.0088 51.3993 85.5512 54.4884C85.1507 57.5203 84.5501 60.6095 83.7492 63.7558C83.0055 64.3278 82.5479 65.0429 82.3762 65.901C82.2046 66.7591 81.9186 67.56 81.5182 68.3036C81.1749 68.9329 80.7173 69.6194 80.1452 70.363C79.5732 71.0495 78.9439 71.7932 78.2574 72.5941C77.571 73.3377 76.8845 74.11 76.198 74.9109C75.5116 75.7118 74.9395 76.5126 74.4819 77.3135C72.7657 77.8856 71.5358 79.1155 70.7921 81.0033C69.8768 81.3465 68.9329 81.747 67.9604 82.2046C66.9879 82.6051 66.3014 83.3201 65.901 84.3498C63.7844 85.4367 61.7822 86.6953 59.8944 88.1254C58.0638 89.4983 56.0616 90.6997 53.8878 91.7294C53.6018 92.0154 53.2585 92.2442 52.8581 92.4158C52.5149 92.5302 52.143 92.6733 51.7426 92.8449C51.3993 93.0165 51.0561 93.2167 50.7129 93.4455C50.4268 93.7316 50.2552 94.0748 50.198 94.4752C49.9692 94.4752 49.7976 94.418 49.6832 94.3036C49.626 94.2464 49.4543 94.1892 49.1683 94.132C48.5391 94.4752 48.253 95.0187 48.3102 95.7624C48.0814 95.648 47.7668 95.5908 47.3663 95.5908C46.6799 95.5908 45.9934 95.791 45.3069 96.1914C44.6777 96.6491 44.1342 97.1067 43.6766 97.5644C42.9901 97.9076 42.1892 98.2508 41.2739 98.5941C40.4158 98.9373 39.7866 99.5093 39.3861 100.31C39.1573 100.081 38.8141 99.967 38.3564 99.967C37.8416 99.967 37.2981 100.11 36.7261 100.396C36.154 100.739 35.725 101.111 35.4389 101.512C34.6381 101.512 33.8658 101.626 33.1221 101.855C32.4356 102.141 31.7206 102.398 30.9769 102.627C30.2332 102.913 29.4896 103.171 28.7459 103.399C28.0594 103.628 27.3157 103.743 26.5149 103.743C26.0572 103.743 25.714 103.628 25.4851 103.399C25.2563 103.171 24.9703 102.97 24.6271 102.799C24.341 103.027 23.8262 103.285 23.0825 103.571C22.396 103.857 21.8812 104 21.538 104C20.9087 104 20.2794 103.914 19.6502 103.743C19.0781 103.571 18.4774 103.371 17.8482 103.142L16.0462 102.541C15.4741 102.37 14.8449 102.255 14.1584 102.198C13.6436 101.74 13.0143 101.254 12.2706 100.739C11.5842 100.282 10.8977 100.139 10.2112 100.31C9.92519 99.4521 9.49615 98.7085 8.92409 98.0792C8.35204 97.4499 7.69417 96.8779 6.9505 96.363C6.77888 96.2486 6.57866 96.1342 6.34984 96.0198C6.17822 95.9626 6.0352 95.8768 5.92079 95.7624C5.63476 95.5908 5.37734 95.2475 5.14852 94.7327C4.91969 94.2178 4.66227 93.9604 4.37624 93.9604C4.31903 93.9604 4.23322 93.989 4.11881 94.0462C4.06161 94.1034 4.0044 94.132 3.94719 94.132C3.83278 93.6172 3.66117 93.1309 3.43234 92.6733C3.20352 92.1584 2.80308 91.8438 2.23102 91.7294C1.77338 90.242 1.45875 88.7547 1.28713 87.2673C1.11551 85.78 0.886689 84.2926 0.60066 82.8053C0.486249 82.3476 0.343234 81.8042 0.171617 81.1749C0.0572057 80.4884 0 79.8878 0 79.3729C0 78.5148 0.114411 77.4851 0.343234 76.2838C0.629263 75.0825 0.858086 74.0242 1.0297 73.1089C1.71617 69.791 2.63146 66.5875 3.77558 63.4983C4.91969 60.352 6.14962 57.2343 7.46535 54.1452C8.83828 51.0561 10.2398 47.9956 11.67 44.9637C13.1001 41.9318 14.4444 38.8427 15.703 35.6964C15.9318 35.6964 16.0748 35.6392 16.132 35.5248L16.3894 35.0957C16.5039 34.9241 16.5897 34.7811 16.6469 34.6667C16.7613 34.5523 16.9615 34.495 17.2475 34.495V34.2376C17.1903 33.8944 17.2475 33.6084 17.4191 33.3795C17.648 33.1507 17.7052 32.7789 17.5908 32.264C18.5061 31.2343 19.2783 30.0902 19.9076 28.8317C20.5369 27.516 21.1661 26.2288 21.7954 24.9703C22.4818 23.7118 23.1969 22.4818 23.9406 21.2805C24.6843 20.0792 25.6282 19.0495 26.7723 18.1914V17.5908C26.7151 17.3047 26.7151 17.0187 26.7723 16.7327C26.8867 16.3894 27.0869 16.1606 27.3729 16.0462C28.4026 15.0165 29.2607 13.9868 29.9472 12.9571C30.6337 11.9274 31.3201 10.9263 32.0066 9.95379C32.7503 8.92409 33.5512 7.9802 34.4092 7.12211C35.3245 6.20682 36.4686 5.37734 37.8416 4.63366C38.4708 4.34763 38.9285 3.91859 39.2145 3.34653C39.5006 2.77448 39.8724 2.37404 40.33 2.14521C40.5589 2.0308 40.7877 1.9736 41.0165 1.9736C41.3025 1.91639 41.56 1.83058 41.7888 1.71617C42.7613 1.43014 43.7338 1.08691 44.7063 0.686469C45.6788 0.228823 46.7085 0 47.7954 0C49.1683 0 50.198 0.40044 50.8845 1.20132C51.6282 1.94499 52.2002 2.86029 52.6007 3.94719C53.0583 5.0341 53.4301 6.17822 53.7162 7.37954C54.0022 8.58086 54.4598 9.61056 55.0891 10.4686C56.8053 10.5831 58.5501 10.7833 60.3234 11.0693C62.0968 11.2981 63.6414 12.0132 64.9571 13.2145C65.0715 13.2717 65.2145 13.3003 65.3861 13.3003C65.6722 13.3003 65.8152 13.1859 65.8152 12.9571C65.8152 12.7283 65.9582 12.6139 66.2442 12.6139H66.5017C68.2178 13.6436 69.8482 14.7877 71.3927 16.0462C72.9945 17.2475 74.5677 18.506 76.1122 19.8218C76.3982 20.0506 76.6843 20.2794 76.9703 20.5082C77.3135 20.6799 77.5996 20.9087 77.8284 21.1947C78.1144 21.538 78.3718 21.9384 78.6007 22.396C78.8867 22.8537 79.1441 23.2541 79.3729 23.5974C82.2332 28.5743 84.1496 33.923 85.1221 39.6436C85.2365 40.2728 85.3223 40.8735 85.3795 41.4455C85.494 42.0176 85.5512 42.5611 85.5512 43.0759C85.5512 43.5908 85.6656 43.934 85.8944 44.1056C86.1232 44.22 86.2376 44.506 86.2376 44.9637ZM79.6304 49.3399C79.6304 47.0517 79.3443 44.8493 78.7723 42.7327C79.0583 42.6183 79.2299 42.4466 79.2871 42.2178C79.4015 41.9318 79.4588 41.6458 79.4588 41.3597V40.9307L78.429 39.0429C78.3718 38.242 78.2002 37.4983 77.9142 36.8119C77.6854 36.1254 77.3993 35.4389 77.0561 34.7525C76.7129 34.066 76.3696 33.3795 76.0264 32.6931C75.7404 32.0066 75.5402 31.2629 75.4257 30.462C74.5105 29.7756 73.681 29.0033 72.9373 28.1452C72.2508 27.2299 71.6216 26.286 71.0495 25.3135C70.6491 25.1419 70.2772 25.0275 69.934 24.9703C69.5908 24.9131 69.4764 24.5985 69.5908 24.0264C68.5611 23.7404 67.6172 23.3399 66.7591 22.8251C65.9582 22.253 65.1573 21.6238 64.3564 20.9373C63.0407 20.6513 61.725 20.308 60.4092 19.9076C59.1507 19.4499 57.8636 19.2211 56.5479 19.2211C55.6326 19.2211 54.7459 19.3927 53.8878 19.736C54.1738 20.1936 54.3168 20.7085 54.3168 21.2805C54.3168 21.7954 54.374 22.3102 54.4885 22.8251C56.319 23.2827 57.4345 24.3982 57.835 26.1716C57.549 26.3432 57.2915 26.5721 57.0627 26.8581C56.8339 27.0869 56.6051 27.3157 56.3762 27.5446C56.2046 27.7162 55.9758 27.8878 55.6898 28.0594C55.4037 28.231 55.0605 28.3168 54.6601 28.3168C53.8592 28.3168 53.2299 28.1738 52.7723 27.8878C52.3718 27.6018 51.714 27.5446 50.7987 27.7162C49.8262 26.8581 48.8823 25.9714 47.967 25.0561C47.0517 24.0836 46.022 23.2255 44.8779 22.4818C44.7063 21.9098 44.4202 21.3949 44.0198 20.9373C43.6766 20.4796 43.3047 20.0506 42.9043 19.6502C42.5611 19.1925 42.2178 18.7349 41.8746 18.2772C41.5886 17.7624 41.4455 17.1903 41.4455 16.5611C41.4455 16.1606 41.4741 15.8746 41.5314 15.703C41.1881 15.5886 40.9307 15.5314 40.7591 15.5314C40.3014 15.5314 39.8724 15.703 39.4719 16.0462C39.0715 16.3322 38.6139 16.5325 38.099 16.6469C37.6414 18.0198 36.9835 19.2211 36.1254 20.2508C35.2673 21.2805 34.3806 22.2816 33.4653 23.2541C32.5501 24.2266 31.692 25.2563 30.8911 26.3432C30.1474 27.3729 29.604 28.6601 29.2607 30.2046C27.4301 32.4928 25.7426 35.0957 24.198 38.0132C22.6535 40.8735 21.4807 43.6766 20.6799 46.4224C19.3641 47.9098 18.3344 49.4829 17.5908 51.1419C16.8471 52.8009 16.418 54.6315 16.3036 56.6337C16.0176 56.8053 15.7888 57.0341 15.6172 57.3201L14.7591 59.0363C14.6447 59.3223 14.4444 59.5512 14.1584 59.7228V60.1518C14.1584 60.6095 14.0726 61.0385 13.901 61.4389C13.7294 61.7822 13.5292 62.1254 13.3003 62.4686C13.1287 62.8119 12.9571 63.1551 12.7855 63.4983C12.6139 63.7844 12.5281 64.1276 12.5281 64.528C12.5281 64.9857 12.6425 65.4433 12.8713 65.901C12.242 66.0154 11.813 66.3586 11.5842 66.9307C11.4125 67.4455 11.1551 67.9032 10.8119 68.3036C10.5831 70.1342 10.3542 71.9934 10.1254 73.8812C9.89659 75.769 9.78218 77.6282 9.78218 79.4587C9.78218 81.5754 10.011 83.7206 10.4686 85.8944C10.9835 86.4092 11.4411 86.9813 11.8416 87.6106C12.242 88.2398 12.6425 88.8405 13.0429 89.4125C13.5006 89.9846 13.9868 90.4994 14.5017 90.9571C15.0165 91.3575 15.703 91.615 16.5611 91.7294C16.5611 92.1298 16.6469 92.4158 16.8185 92.5875C16.9901 92.7591 17.1331 92.9879 17.2475 93.2739C18.4488 93.6744 19.7074 93.989 21.0231 94.2178C22.3388 94.5038 23.6546 94.6469 24.9703 94.6469C25.8856 94.6469 26.8009 94.5324 27.7162 94.3036C28.6887 94.0748 29.4896 93.6172 30.1188 92.9307C33.0363 92.8163 35.9252 92.1298 38.7855 90.8713C41.703 89.6128 44.363 88.2398 46.7657 86.7525H48.5677C49.1969 85.8944 49.9692 85.2079 50.8845 84.6931C51.7998 84.121 52.7437 83.6062 53.7162 83.1485C53.8878 83.0341 54.1166 82.9197 54.4026 82.8053C54.6887 82.6909 54.9175 82.5765 55.0891 82.462C55.7184 82.0044 56.3476 81.4895 56.9769 80.9175C57.6634 80.3454 58.3498 79.802 59.0363 79.2871C60.1804 78.429 61.3531 77.5996 62.5545 76.7987C63.7558 75.9978 64.8999 75.1397 65.9868 74.2244C67.1309 73.3091 68.1892 72.3366 69.1617 71.3069C70.1914 70.22 71.0495 69.0187 71.736 67.703C72.0792 67.703 72.3366 67.6172 72.5083 67.4455C72.7371 67.2167 72.9087 66.9879 73.0231 66.7591C73.1947 66.5303 73.3663 66.33 73.538 66.1584C73.7668 65.9868 74.0814 65.901 74.4819 65.901C74.4819 65.3861 74.5677 64.9571 74.7393 64.6139C74.9681 64.2134 75.1969 63.8702 75.4257 63.5842C75.7118 63.2409 75.9692 62.9263 76.198 62.6403C76.4841 62.3542 76.7415 61.9824 76.9703 61.5247V59.1221C77.8856 57.6348 78.5435 56.0616 78.9439 54.4026C79.4015 52.7437 79.6304 51.0561 79.6304 49.3399Z" fill="white"/>
</svg>
