<svg width="219" height="267" viewBox="0 0 219 267" fill="none" xmlns="http://www.w3.org/2000/svg">
<rect x="1" y="1" width="217" height="265" rx="9" stroke="white" stroke-width="2" stroke-dasharray="5 5"/>
<path d="M75.1211 28.9297C74.6107 29.4401 74.1003 29.9505 73.5898 30.4609C73.0794 30.9349 72.6784 31.5365 72.3867 32.2656C71.9492 32.3385 71.4935 32.4297 71.0195 32.5391C70.5456 32.6484 70.0898 32.7031 69.6523 32.7031C69.3607 32.7031 69.069 32.6667 68.7773 32.5938C68.4857 32.4844 68.194 32.4297 67.9023 32.4297C67.6471 32.4297 67.5195 32.5573 67.5195 32.8125C67.5195 33.0677 67.4466 33.2682 67.3008 33.4141C67.0091 33.3047 66.6992 33.2318 66.3711 33.1953C66.043 33.1589 65.7148 33.1406 65.3867 33.1406C64.6211 33.1406 63.8555 33.2682 63.0898 33.5234C62.3607 33.7422 61.6315 34.0156 60.9023 34.3438C60.1732 34.6354 59.444 34.9453 58.7148 35.2734C57.9857 35.6016 57.2383 35.8568 56.4727 36.0391C56.5091 36.0755 56.5273 36.1667 56.5273 36.3125C56.5273 36.5677 56.4544 36.7865 56.3086 36.9688C56.1628 37.1146 56.0898 37.3151 56.0898 37.5703V37.7344C56.5273 38.6823 56.9648 39.5938 57.4023 40.4688C57.8398 41.3438 58.2591 42.2552 58.6602 43.2031C58.8789 43.6771 59.0612 44.1328 59.207 44.5703C59.3529 45.0078 59.5169 45.4818 59.6992 45.9922C59.7721 46.2839 59.8997 46.4844 60.082 46.5938C60.2643 46.6667 60.4466 46.7943 60.6289 46.9766C60.556 47.1953 60.5195 47.3958 60.5195 47.5781C60.5195 48.2708 60.6836 48.9453 61.0117 49.6016C61.3398 50.2214 61.5039 50.8594 61.5039 51.5156C61.5039 51.6979 61.4674 51.9349 61.3945 52.2266C61.832 52.8464 62.1419 53.5573 62.3242 54.3594C62.5065 55.1615 62.6706 55.9818 62.8164 56.8203C62.9622 57.6224 63.1081 58.4245 63.2539 59.2266C63.4362 59.9922 63.7461 60.6849 64.1836 61.3047C63.9284 61.7422 63.7643 62.2161 63.6914 62.7266C63.6185 63.2005 63.582 63.6927 63.582 64.2031C63.582 65.3698 63.6914 66.5547 63.9102 67.7578C64.1654 68.9245 64.293 70.0911 64.293 71.2578C64.293 72.0599 64.2018 72.7161 64.0195 73.2266C64.0924 73.7734 64.2747 74.1745 64.5664 74.4297C64.4206 74.6849 64.3659 74.9948 64.4023 75.3594C64.4388 75.6875 64.3659 75.9792 64.1836 76.2344C64.3659 76.9635 64.457 77.638 64.457 78.2578C64.457 79.1693 64.3294 80.0807 64.0742 80.9922C63.8555 81.8672 63.7461 82.7786 63.7461 83.7266C63.7461 83.9818 63.7643 84.2188 63.8008 84.4375C63.8372 84.6927 63.9102 84.9661 64.0195 85.2578C63.9466 85.4766 63.8008 85.6042 63.582 85.6406C63.3997 85.7135 63.2721 85.8411 63.1992 86.0234V86.1875C63.1992 86.7344 63.1263 87.2083 62.9805 87.6094C62.8711 88.0469 62.7253 88.4479 62.543 88.8125L62.0508 89.9609C61.9049 90.362 61.7773 90.7995 61.668 91.2734C60.7201 91.7839 59.8086 92.276 58.9336 92.75C58.0951 93.224 57.2747 93.862 56.4727 94.6641C56.3268 94.7005 56.1081 94.7188 55.8164 94.7188C55.5612 94.7188 55.306 94.7005 55.0508 94.6641C54.7956 94.6641 54.5221 94.6641 54.2305 94.6641C53.8294 94.6641 53.4102 94.7188 52.9727 94.8281C52.3893 94.2812 51.6784 93.8802 50.8398 93.625C50.0013 93.4062 49.2174 93.0964 48.4883 92.6953C48.2331 92.3672 47.9414 92.0755 47.6133 91.8203L46.6289 91.0547C46.3008 90.7995 45.9909 90.5443 45.6992 90.2891C45.4076 90.0339 45.1523 89.7057 44.9336 89.3047H44.168C44.168 89.2682 44.168 89.2318 44.168 89.1953C44.2044 89.1589 44.2227 89.1224 44.2227 89.0859C44.2227 88.9036 44.1315 88.7943 43.9492 88.7578C43.7669 88.7214 43.7122 88.5938 43.7852 88.375C43.3477 88.0469 42.9831 87.6641 42.6914 87.2266C42.3997 86.7891 42.1081 86.3333 41.8164 85.8594C41.5247 85.4219 41.2331 84.9844 40.9414 84.5469C40.6497 84.1458 40.2852 83.7812 39.8477 83.4531V83.3438C39.8477 83.1615 39.793 83.0521 39.6836 83.0156C39.5742 82.9427 39.556 82.7604 39.6289 82.4688C39.0456 81.7031 38.5534 80.901 38.1523 80.0625C37.7513 79.224 37.3685 78.3672 37.0039 77.4922C36.6758 76.5807 36.3294 75.6875 35.9648 74.8125C35.6367 73.9375 35.2357 73.099 34.7617 72.2969C34.6888 71.9323 34.6523 71.5677 34.6523 71.2031V70.1094C34.6523 69.0521 34.7435 68.0495 34.9258 67.1016C35.1081 66.1172 35.4544 65.1693 35.9648 64.2578C36.2565 64.1849 36.5846 64.1667 36.9492 64.2031C37.3503 64.2031 37.7148 64.2031 38.043 64.2031C38.3711 64.2031 38.681 64.1849 38.9727 64.1484C39.3008 64.0755 39.5924 63.9115 39.8477 63.6562C39.8112 63.8021 39.8477 63.9115 39.957 63.9844C40.0664 64.0208 40.1758 64.0391 40.2852 64.0391C40.4674 64.0391 40.6315 64.0208 40.7773 63.9844C40.9596 63.9115 41.1419 63.875 41.3242 63.875C41.3971 63.875 41.4883 63.8932 41.5977 63.9297C41.7435 63.9661 41.8164 64.0755 41.8164 64.2578C42.0352 64.1849 42.2357 64.0938 42.418 63.9844C42.6003 63.875 42.8008 63.7656 43.0195 63.6562C43.6393 64.2031 44.3685 64.6224 45.207 64.9141C46.0456 65.1693 46.9023 65.4245 47.7773 65.6797C48.6523 65.8984 49.5091 66.1536 50.3477 66.4453C51.1862 66.7005 51.9336 67.0833 52.5898 67.5938C52.7721 67.9583 52.8633 68.3411 52.8633 68.7422C52.8633 69.362 52.6081 69.9089 52.0977 70.3828C51.5872 70.8203 51.0404 71.1302 50.457 71.3125C49.6185 70.7292 48.6706 70.3099 47.6133 70.0547C46.5924 69.7995 45.6263 69.4349 44.7148 68.9609C43.9857 69.2526 43.1836 69.4167 42.3086 69.4531C41.4701 69.4531 40.6497 69.4896 39.8477 69.5625C39.6654 69.7083 39.5924 69.9635 39.6289 70.3281C39.7018 70.6927 39.6471 70.9661 39.4648 71.1484C39.9388 72.5703 40.5586 73.9557 41.3242 75.3047C42.0898 76.6172 42.7826 77.9661 43.4023 79.3516C43.4753 79.5703 43.6029 79.7344 43.7852 79.8438C43.9674 79.9167 44.1497 80.0078 44.332 80.1172V80.2812C44.332 80.5 44.3867 80.6641 44.4961 80.7734C44.6055 80.8464 44.6237 81.0286 44.5508 81.3203C44.9883 81.3932 45.2982 81.6302 45.4805 82.0312C45.6992 82.4323 45.918 82.7786 46.1367 83.0703C46.2826 83.2526 46.4284 83.4167 46.5742 83.5625C46.7565 83.7083 46.9206 83.8724 47.0664 84.0547C47.6862 84.7474 48.3607 85.4766 49.0898 86.2422C49.819 87.0078 50.5846 87.5911 51.3867 87.9922C51.4961 88.0651 51.5872 88.1016 51.6602 88.1016C51.7695 88.1016 51.8789 88.1198 51.9883 88.1562C52.3893 88.375 52.8268 88.5755 53.3008 88.7578C53.7747 88.9766 54.2669 89.0859 54.7773 89.0859C55.0326 89.0859 55.2878 89.0312 55.543 88.9219C55.8346 88.8125 56.0169 88.6302 56.0898 88.375C56.2721 88.0469 56.3997 87.6641 56.4727 87.2266C56.582 86.8255 56.6732 86.4427 56.7461 86.0781C57.0378 85.0208 57.3112 83.9635 57.5664 82.9062C57.8581 81.849 58.0951 80.7917 58.2773 79.7344C58.2044 79.2604 58.1497 78.7865 58.1133 78.3125C58.0768 77.8385 58.0586 77.3646 58.0586 76.8906C58.0586 76.0521 58.0768 75.2135 58.1133 74.375C58.1862 73.5365 58.2227 72.6979 58.2227 71.8594C58.2227 71.0938 58.168 70.3464 58.0586 69.6172C57.9857 68.8516 57.8034 68.1042 57.5117 67.375C57.5846 67.2292 57.6758 67.1198 57.7852 67.0469C57.8945 66.974 57.9492 66.8464 57.9492 66.6641C57.9492 66.4453 57.8763 66.1536 57.7305 65.7891C57.6211 65.388 57.4753 65.1328 57.293 65.0234C57.5482 64.6589 57.6758 64.2031 57.6758 63.6562C57.6758 63.0365 57.5846 62.4167 57.4023 61.7969C57.2201 61.1771 57.1289 60.5573 57.1289 59.9375C57.1289 59.5365 57.1836 59.1354 57.293 58.7344C57.293 58.4792 57.1654 58.3516 56.9102 58.3516C56.6549 58.3516 56.5091 58.224 56.4727 57.9688C56.4727 57.8958 56.4727 57.8229 56.4727 57.75C56.5091 57.6771 56.5273 57.6042 56.5273 57.5312C56.5273 57.0573 56.4544 56.6198 56.3086 56.2188C56.1992 55.7812 56.1263 55.3255 56.0898 54.8516C55.7617 54.487 55.5247 54.0312 55.3789 53.4844C55.2331 52.9375 55.0872 52.3906 54.9414 51.8438C54.7956 51.2604 54.6315 50.7135 54.4492 50.2031C54.2669 49.6927 53.9753 49.2734 53.5742 48.9453C53.5742 48.4714 53.5013 47.9792 53.3555 47.4688C53.2461 46.9583 52.9362 46.5938 52.4258 46.375C52.207 45.5365 51.9154 44.7526 51.5508 44.0234C51.1862 43.2943 50.694 42.638 50.0742 42.0547C50.0742 41.1797 49.8919 40.5052 49.5273 40.0312C49.1992 39.5573 48.7799 39.0104 48.2695 38.3906C47.431 38.4635 46.5924 38.6276 45.7539 38.8828C44.9154 39.138 44.0768 39.2656 43.2383 39.2656C43.0195 39.2656 42.8008 39.2656 42.582 39.2656C42.3997 39.2292 42.1992 39.1927 41.9805 39.1562C41.7982 39.2656 41.6888 39.4479 41.6523 39.7031C41.6159 39.9219 41.5977 40.1224 41.5977 40.3047C40.9414 40.3776 40.3034 40.5052 39.6836 40.6875C39.0638 40.8333 38.4258 40.9974 37.7695 41.1797C37.1497 41.3255 36.5299 41.4531 35.9102 41.5625C35.2904 41.6719 34.6523 41.7083 33.9961 41.6719C33.7409 42.1823 33.3763 42.5286 32.9023 42.7109C32.4284 42.8568 31.918 42.9661 31.3711 43.0391C30.8607 43.112 30.3503 43.2031 29.8398 43.3125C29.3294 43.4219 28.9284 43.6589 28.6367 44.0234C28.4909 43.8776 28.3086 43.8047 28.0898 43.8047C27.7982 43.8047 27.5247 43.8776 27.2695 44.0234C26.9779 44.1693 26.668 44.2422 26.3398 44.2422C26.0846 44.2422 25.8841 44.1693 25.7383 44.0234C25.4831 44.2057 25.2096 44.3516 24.918 44.4609C24.5898 44.5339 24.3346 44.7161 24.1523 45.0078C23.5326 44.8984 22.9857 44.6615 22.5117 44.2969C22.0378 43.9323 21.6549 43.4948 21.3633 42.9844C21.0352 42.474 20.7982 41.9271 20.6523 41.3438C20.5065 40.724 20.4336 40.1224 20.4336 39.5391C20.6523 39.138 20.9987 38.8646 21.4727 38.7188C21.9466 38.5729 22.3294 38.3177 22.6211 37.9531C22.8763 38.0625 23.1315 38.1719 23.3867 38.2812C23.6055 38.3542 23.8607 38.3906 24.1523 38.3906C24.5169 38.3906 24.8268 38.3177 25.082 38.1719C25.3372 38.026 25.6107 37.9531 25.9023 37.9531C26.0846 37.9531 26.2852 38.0078 26.5039 38.1172C26.7591 37.8984 27.069 37.7708 27.4336 37.7344C27.7982 37.6615 28.1445 37.6068 28.4727 37.5703C28.8372 37.4974 29.1654 37.4062 29.457 37.2969C29.7487 37.1875 29.9492 36.9505 30.0586 36.5859C30.3867 36.6953 30.7331 36.75 31.0977 36.75C31.5352 36.75 31.9727 36.6953 32.4102 36.5859C32.8477 36.4401 33.2487 36.2943 33.6133 36.1484C33.9779 36.0026 34.306 35.875 34.5977 35.7656C34.8893 35.6198 35.0898 35.5469 35.1992 35.5469C35.3815 35.5469 35.5638 35.6016 35.7461 35.7109C35.9284 35.7839 36.1107 35.8203 36.293 35.8203C36.6576 35.8203 37.0039 35.7109 37.332 35.4922C37.6966 35.2734 38.0247 35.0547 38.3164 34.8359C38.6081 34.9818 38.8815 35.0547 39.1367 35.0547C39.6471 35.0547 40.1576 34.9089 40.668 34.6172C41.2148 34.3255 41.7982 34.1797 42.418 34.1797C42.6732 34.1797 42.8737 34.1979 43.0195 34.2344C43.8581 33.8333 44.8607 33.4688 46.0273 33.1406C47.2305 32.8125 48.306 32.6484 49.2539 32.6484C49.7643 32.2109 50.3659 31.901 51.0586 31.7188C51.7513 31.5365 52.4622 31.3906 53.1914 31.2812C53.9206 31.1719 54.6315 31.026 55.3242 30.8438C56.0534 30.6615 56.7096 30.3516 57.293 29.9141C57.4753 29.987 57.694 30.0417 57.9492 30.0781C58.2044 30.0781 58.3867 30.151 58.4961 30.2969C58.6784 30.224 58.806 30.0964 58.8789 29.9141C58.9518 29.7318 59.0065 29.5495 59.043 29.3672C59.0794 29.3307 59.1523 29.3125 59.2617 29.3125C59.444 29.3125 59.5169 29.3854 59.4805 29.5312C59.444 29.6771 59.5169 29.75 59.6992 29.75C59.8086 29.75 59.9909 29.6953 60.2461 29.5859C60.5378 29.4401 60.8841 29.2943 61.2852 29.1484C61.6862 29.0026 62.1237 28.875 62.5977 28.7656C63.0716 28.6198 63.5273 28.5469 63.9648 28.5469H64.1836L64.457 28.4922C64.6393 28.4193 64.8398 28.3646 65.0586 28.3281C65.2773 28.2552 65.4779 28.1823 65.6602 28.1094C65.8789 28.0365 66.0247 28 66.0977 28C66.8997 27.7448 67.7201 27.526 68.5586 27.3438C69.4336 27.1615 70.2904 27.0703 71.1289 27.0703C71.931 27.0703 72.6784 27.2161 73.3711 27.5078C74.0638 27.763 74.6471 28.237 75.1211 28.9297ZM107.66 52.3359C107.441 52.6641 107.314 53.0286 107.277 53.4297C107.241 53.8307 107.223 54.1953 107.223 54.5234C107.223 54.9609 107.223 55.3984 107.223 55.8359C107.259 56.237 107.277 56.638 107.277 57.0391V57.8594C107.204 58.1146 107.095 58.3698 106.949 58.625C106.803 58.8802 106.694 59.1354 106.621 59.3906C106.111 60.7396 105.855 62.0885 105.855 63.4375V63.5469C105.673 63.9844 105.491 64.3854 105.309 64.75C105.163 65.1146 105.017 65.4792 104.871 65.8438C104.725 66.1719 104.616 66.5365 104.543 66.9375C104.47 67.3021 104.452 67.7396 104.488 68.25C103.978 69.526 103.303 70.6927 102.465 71.75C101.626 72.7708 100.806 73.8281 100.004 74.9219C99.2383 75.2135 98.5273 75.5964 97.8711 76.0703C97.2513 76.5443 96.6497 77.0729 96.0664 77.6562C94.9362 78.0208 93.8242 78.4401 92.7305 78.9141C91.6367 79.388 90.6523 80.026 89.7773 80.8281C89.0846 80.901 88.3919 81.0104 87.6992 81.1562C87.0065 81.3021 86.332 81.5208 85.6758 81.8125H85.0195C84.6914 81.8125 84.4544 81.7396 84.3086 81.5938C83.8346 81.849 83.3424 82.0312 82.832 82.1406C82.3216 82.2135 81.8112 82.25 81.3008 82.25C80.6445 82.25 79.9883 82.2135 79.332 82.1406C78.7122 82.0312 78.0742 81.9219 77.418 81.8125C77.0534 81.3021 76.543 80.9193 75.8867 80.6641C75.2305 80.3724 74.6471 80.099 74.1367 79.8438C73.0794 78.3854 72.3138 76.9818 71.8398 75.6328C71.3659 74.2474 70.8737 72.6979 70.3633 70.9844C70.4362 70.474 70.5638 69.9818 70.7461 69.5078C70.9284 68.9974 71.0013 68.4505 70.9648 67.8672C71.6211 65.9714 72.4779 64.2578 73.5352 62.7266C74.6289 61.1589 75.8685 59.6641 77.2539 58.2422C77.2539 58.0234 77.2904 57.8411 77.3633 57.6953C77.4727 57.5495 77.4909 57.3307 77.418 57.0391C77.4544 57.0755 77.5273 57.0938 77.6367 57.0938C77.9284 57.0938 78.1107 57.0208 78.1836 56.875C78.2565 56.6927 78.2747 56.4922 78.2383 56.2734C79.5508 55.4349 80.7357 54.4688 81.793 53.375C82.8867 52.2812 84.1263 51.3698 85.5117 50.6406C85.6211 50.3125 85.8034 50.0391 86.0586 49.8203C86.3138 49.6016 86.5143 49.3464 86.6602 49.0547C87.8268 48.7266 88.8841 48.2344 89.832 47.5781C90.7799 46.9219 91.7826 46.3385 92.8398 45.8281C93.4232 45.5 93.9701 45.2812 94.4805 45.1719C95.0273 45.026 95.6107 44.8802 96.2305 44.7344C96.4492 44.6615 96.6497 44.6068 96.832 44.5703C97.0143 44.5339 97.2148 44.5156 97.4336 44.5156C98.0898 44.5156 98.7279 44.6432 99.3477 44.8984C99.9674 45.1172 100.605 45.2266 101.262 45.2266C101.444 45.2266 101.59 45.2266 101.699 45.2266C101.845 45.1901 101.991 45.1536 102.137 45.1172C102.757 45.8828 103.54 46.4661 104.488 46.8672C104.707 47.4141 104.962 47.888 105.254 48.2891C105.582 48.6901 105.91 49.0911 106.238 49.4922C106.566 49.8568 106.858 50.276 107.113 50.75C107.405 51.1875 107.587 51.7161 107.66 52.3359ZM102.191 55.1797C102.191 54.9974 102.173 54.8333 102.137 54.6875C101.772 54.5781 101.426 54.4323 101.098 54.25C100.77 54.0677 100.405 53.9766 100.004 53.9766C99.7487 53.9766 99.4935 54.0312 99.2383 54.1406C99.2018 53.8854 99.0924 53.7031 98.9102 53.5938C98.7643 53.4844 98.582 53.3932 98.3633 53.3203C98.181 53.2109 97.9805 53.138 97.7617 53.1016C97.5794 53.0286 97.4154 52.9193 97.2695 52.7734C97.1602 52.4818 97.0326 52.1901 96.8867 51.8984C96.7773 51.5703 96.5586 51.3333 96.2305 51.1875C95.9023 51.5156 95.5195 51.7891 95.082 52.0078C94.6445 52.1901 94.1888 52.3724 93.7148 52.5547C93.2773 52.737 92.8398 52.9557 92.4023 53.2109C92.0013 53.4661 91.6549 53.776 91.3633 54.1406H90.3789C90.1602 54.5417 89.8503 54.8516 89.4492 55.0703C89.0482 55.2526 88.7018 55.526 88.4102 55.8906C87.8268 56.1823 87.2799 56.5469 86.7695 56.9844C86.2956 57.3854 85.8216 57.8229 85.3477 58.2969C84.8737 58.7344 84.3997 59.1901 83.9258 59.6641C83.4883 60.138 83.0143 60.5755 82.5039 60.9766C82.0299 61.9974 81.5013 62.8906 80.918 63.6562C80.3711 64.3854 79.8424 65.1328 79.332 65.8984C78.8581 66.6641 78.4388 67.5026 78.0742 68.4141C77.7461 69.2891 77.582 70.3828 77.582 71.6953V72.2422C77.582 72.4245 77.6003 72.6068 77.6367 72.7891C78.1107 73.2995 78.4935 73.8464 78.7852 74.4297C79.1133 75.013 79.6419 75.4323 80.3711 75.6875C81.1003 75.9792 81.8659 76.1068 82.668 76.0703C83.5065 76.0339 84.3086 76.125 85.0742 76.3438C86.8242 76.0156 88.5013 75.487 90.1055 74.7578C91.7461 73.9922 93.2956 73.0807 94.7539 72.0234C94.9727 71.8411 95.2279 71.6589 95.5195 71.4766C95.8112 71.2578 96.0482 71.0391 96.2305 70.8203C96.4128 70.638 96.5586 70.4375 96.668 70.2188C96.8138 70 96.9596 69.7995 97.1055 69.6172C97.3971 69.1432 97.7253 68.6693 98.0898 68.1953C98.4544 67.7214 98.8372 67.2839 99.2383 66.8828C99.4206 66.0807 99.6576 65.3151 99.9492 64.5859C100.241 63.8203 100.533 63.0729 100.824 62.3438C101.116 61.6146 101.353 60.8672 101.535 60.1016C101.754 59.3359 101.863 58.5339 101.863 57.6953C101.863 57.513 101.845 57.3125 101.809 57.0938C101.809 56.875 101.79 56.6745 101.754 56.4922C102.046 56.0911 102.191 55.6536 102.191 55.1797ZM168.418 53.7578C168.309 54.0859 168.09 54.3229 167.762 54.4688C167.47 54.5781 167.16 54.6693 166.832 54.7422C166.504 54.8151 166.194 54.9427 165.902 55.125C165.647 55.2708 165.483 55.526 165.41 55.8906L165.301 55.9453C165.155 55.9453 165.046 55.9089 164.973 55.8359C164.936 55.7266 164.9 55.6354 164.863 55.5625C164.827 55.4531 164.772 55.362 164.699 55.2891C164.663 55.1797 164.59 55.125 164.48 55.125C164.079 55.125 163.678 55.1615 163.277 55.2344C162.913 55.3073 162.548 55.3438 162.184 55.3438C161.637 55.3438 161.145 55.2708 160.707 55.125C160.452 55.1979 160.306 55.362 160.27 55.6172C160.27 55.8724 160.16 56.0365 159.941 56.1094C159.759 56.1823 159.54 56.2188 159.285 56.2188C159.03 56.1823 158.775 56.2005 158.52 56.2734L156.77 56.7109C156.186 56.8568 155.603 56.9297 155.02 56.9297C154.691 56.9297 154.454 56.9115 154.309 56.875C153.762 57.3125 153.142 57.6406 152.449 57.8594C151.757 58.0417 151.027 58.224 150.262 58.4062C149.533 58.5521 148.803 58.7526 148.074 59.0078C147.382 59.263 146.762 59.6641 146.215 60.2109C145.923 60.138 145.668 60.1016 145.449 60.1016C144.975 60.1016 144.556 60.2109 144.191 60.4297C143.827 60.612 143.444 60.7943 143.043 60.9766C142.861 61.0495 142.678 61.0859 142.496 61.0859C142.314 61.0859 142.113 61.1224 141.895 61.1953C141.676 61.2682 141.53 61.3958 141.457 61.5781C141.421 61.724 141.311 61.8698 141.129 62.0156C141.129 63.3281 141.257 64.6406 141.512 65.9531C141.767 67.2292 141.895 68.5234 141.895 69.8359V70.0547C141.967 70.6745 142.168 71.2578 142.496 71.8047C142.824 72.3151 142.988 72.8438 142.988 73.3906C142.988 73.5729 142.952 73.7734 142.879 73.9922C143.827 74.2109 144.447 74.7031 144.738 75.4688C145.066 76.1979 145.322 77 145.504 77.875C145.723 78.7135 145.996 79.4974 146.324 80.2266C146.689 80.9557 147.382 81.4115 148.402 81.5938C148.475 81.9583 148.53 82.3411 148.566 82.7422C148.603 83.1068 148.621 83.4714 148.621 83.8359C148.621 84.3464 148.566 84.8385 148.457 85.3125C148.348 85.8229 148.129 86.2786 147.801 86.6797C147.254 86.7161 146.853 86.7344 146.598 86.7344C146.342 86.7344 145.96 86.8438 145.449 87.0625C144.72 86.625 144.064 86.1146 143.48 85.5312C142.934 84.9844 142.405 84.401 141.895 83.7812C141.421 83.125 140.947 82.4688 140.473 81.8125C139.999 81.1198 139.488 80.4635 138.941 79.8438C137.046 80.3177 135.095 80.6458 133.09 80.8281C131.121 80.974 129.152 81.0469 127.184 81.0469C127.111 81.1198 127.001 81.1562 126.855 81.1562C126.71 81.1562 126.564 81.1745 126.418 81.2109C126.309 81.2109 126.199 81.2474 126.09 81.3203C126.017 81.3568 125.999 81.4479 126.035 81.5938C125.78 81.4479 125.488 81.3568 125.16 81.3203C124.868 81.2474 124.595 81.2109 124.34 81.2109C124.158 81.2109 123.975 81.2292 123.793 81.2656C123.611 81.2656 123.428 81.3203 123.246 81.4297C121.861 81.1745 120.512 80.8281 119.199 80.3906C117.923 79.9167 116.611 79.5339 115.262 79.2422C115.262 78.9505 115.189 78.75 115.043 78.6406C114.897 78.4948 114.77 78.2943 114.66 78.0391C113.129 77.0911 111.835 75.9427 110.777 74.5938C109.757 73.2448 109.337 71.6042 109.52 69.6719L109.137 68.9062C109.137 68.3229 109.264 67.9036 109.52 67.6484C109.374 67.3932 109.118 67.138 108.754 66.8828C109.082 66.3724 109.374 65.8438 109.629 65.2969C109.884 64.75 110.066 64.1667 110.176 63.5469C110.212 63.3646 110.23 63.2005 110.23 63.0547C110.23 62.9089 110.267 62.7448 110.34 62.5625C110.413 62.3438 110.522 62.1068 110.668 61.8516C110.777 61.5599 110.887 61.3047 110.996 61.0859C111.579 59.8464 112.217 58.6615 112.91 57.5312C113.639 56.3646 114.551 55.362 115.645 54.5234C115.717 53.9036 115.9 53.3932 116.191 52.9922C116.483 52.5547 116.793 52.1719 117.121 51.8438C117.486 51.4792 117.832 51.1146 118.16 50.75C118.525 50.3854 118.798 49.9479 118.98 49.4375C119.71 48.8177 120.439 48.2161 121.168 47.6328C121.934 47.0495 122.572 46.3568 123.082 45.5547C123.738 45.3359 124.358 45.0625 124.941 44.7344C125.525 44.3698 126.017 43.9141 126.418 43.3672C127.293 43.2943 128.15 43.1302 128.988 42.875C129.863 42.6198 130.775 42.4922 131.723 42.4922C132.124 42.4922 132.598 42.5833 133.145 42.7656C133.728 42.9115 134.165 43.1849 134.457 43.5859C134.493 43.6589 134.512 43.75 134.512 43.8594L134.566 44.1328C134.603 44.2057 134.639 44.2786 134.676 44.3516C134.749 44.388 134.858 44.388 135.004 44.3516C135.004 45.1536 134.913 45.974 134.73 46.8125C134.548 47.6146 134.074 48.2344 133.309 48.6719C132.835 48.526 132.324 48.4531 131.777 48.4531C131.048 48.4531 130.374 48.599 129.754 48.8906C129.171 49.1458 128.587 49.4557 128.004 49.8203C127.457 50.1484 126.892 50.4948 126.309 50.8594C125.725 51.1875 125.105 51.4245 124.449 51.5703C124.376 51.862 124.303 52.1354 124.23 52.3906C124.194 52.6094 124.212 52.8646 124.285 53.1562C124.103 53.1562 123.957 53.138 123.848 53.1016C123.775 53.0286 123.647 52.9922 123.465 52.9922C123.21 52.9922 123.027 53.138 122.918 53.4297C122.845 53.7214 122.772 53.9583 122.699 54.1406C122.007 54.4323 121.423 54.8516 120.949 55.3984C120.512 55.9089 120.092 56.474 119.691 57.0938C119.327 57.6771 118.926 58.2422 118.488 58.7891C118.051 59.3359 117.504 59.7552 116.848 60.0469C116.556 61.2135 116.264 62.362 115.973 63.4922C115.717 64.6224 115.408 65.7526 115.043 66.8828C115.152 67.3203 115.207 67.776 115.207 68.25C115.207 68.8333 115.152 69.362 115.043 69.8359C115.225 70.1276 115.408 70.474 115.59 70.875L116.246 72.1328C116.465 72.5703 116.684 72.9714 116.902 73.3359C117.158 73.7005 117.395 73.974 117.613 74.1562C118.014 74.4479 118.634 74.7214 119.473 74.9766C120.311 75.1953 121.059 75.5781 121.715 76.125C121.788 76.125 121.879 76.125 121.988 76.125C122.098 76.0885 122.189 76.0703 122.262 76.0703C122.699 76.0703 123.173 76.1797 123.684 76.3984C124.194 76.6172 124.522 76.7266 124.668 76.7266C126.71 76.7266 128.934 76.599 131.34 76.3438C133.746 76.0521 135.97 75.7057 138.012 75.3047C138.085 74.9401 138.121 74.6302 138.121 74.375C138.121 73.901 138.048 73.4453 137.902 73.0078C137.757 72.5339 137.52 72.1328 137.191 71.8047C137.191 71.2578 137.191 70.7109 137.191 70.1641C137.228 69.6172 137.246 69.0703 137.246 68.5234C137.246 67.612 137.21 66.6458 137.137 65.625C137.064 64.6042 136.882 63.6562 136.59 62.7812H136.48C136.007 62.7812 135.569 62.9089 135.168 63.1641C134.803 63.3828 134.421 63.4922 134.02 63.4922C133.801 63.4922 133.618 63.4375 133.473 63.3281C133.035 63.8385 132.507 64.2214 131.887 64.4766C131.267 64.7318 130.611 64.9688 129.918 65.1875C129.225 65.3698 128.533 65.5703 127.84 65.7891C127.184 66.0078 126.582 66.3177 126.035 66.7188C125.743 66.6094 125.47 66.5547 125.215 66.5547C124.96 66.5547 124.704 66.5729 124.449 66.6094C124.23 66.6458 123.975 66.6823 123.684 66.7188C122.918 66.0625 122.535 65.2422 122.535 64.2578C122.535 63.7474 122.608 63.2552 122.754 62.7812C122.936 62.2708 123.173 61.7969 123.465 61.3594C123.647 61.25 123.866 61.1953 124.121 61.1953C124.376 61.1589 124.632 61.1224 124.887 61.0859C125.142 61.013 125.342 60.9219 125.488 60.8125C125.671 60.7031 125.78 60.5026 125.816 60.2109C125.926 60.3203 126.017 60.375 126.09 60.375C126.163 60.375 126.236 60.3568 126.309 60.3203C126.382 60.2839 126.454 60.2656 126.527 60.2656C126.6 60.2656 126.655 60.3021 126.691 60.375C126.764 60.4479 126.801 60.5208 126.801 60.5938C128.368 59.7552 129.973 59.0443 131.613 58.4609C133.254 57.8776 134.913 57.349 136.59 56.875C138.303 56.401 140.017 55.9635 141.73 55.5625C143.444 55.125 145.139 54.651 146.816 54.1406C147.072 53.9219 147.345 53.7578 147.637 53.6484C147.928 53.5391 148.184 53.375 148.402 53.1562C148.658 53.3021 148.967 53.375 149.332 53.375C149.842 53.375 150.389 53.2839 150.973 53.1016C151.592 52.8828 152.103 52.6276 152.504 52.3359C152.65 52.3724 152.777 52.3906 152.887 52.3906H153.27C153.999 52.3906 154.673 52.2812 155.293 52.0625C155.949 51.8438 156.587 51.5521 157.207 51.1875H157.48C158.611 51.1875 159.723 51.0599 160.816 50.8047C161.947 50.5495 163.095 50.4219 164.262 50.4219C165.757 50.4219 167.069 50.8047 168.199 51.5703V52.2266C168.199 52.5182 168.199 52.7917 168.199 53.0469C168.236 53.2656 168.309 53.5026 168.418 53.7578ZM187.23 52.3359C187.012 52.6641 186.884 53.0286 186.848 53.4297C186.811 53.8307 186.793 54.1953 186.793 54.5234C186.793 54.9609 186.793 55.3984 186.793 55.8359C186.829 56.237 186.848 56.638 186.848 57.0391V57.8594C186.775 58.1146 186.665 58.3698 186.52 58.625C186.374 58.8802 186.264 59.1354 186.191 59.3906C185.681 60.7396 185.426 62.0885 185.426 63.4375V63.5469C185.243 63.9844 185.061 64.3854 184.879 64.75C184.733 65.1146 184.587 65.4792 184.441 65.8438C184.296 66.1719 184.186 66.5365 184.113 66.9375C184.04 67.3021 184.022 67.7396 184.059 68.25C183.548 69.526 182.874 70.6927 182.035 71.75C181.197 72.7708 180.376 73.8281 179.574 74.9219C178.809 75.2135 178.098 75.5964 177.441 76.0703C176.822 76.5443 176.22 77.0729 175.637 77.6562C174.507 78.0208 173.395 78.4401 172.301 78.9141C171.207 79.388 170.223 80.026 169.348 80.8281C168.655 80.901 167.962 81.0104 167.27 81.1562C166.577 81.3021 165.902 81.5208 165.246 81.8125H164.59C164.262 81.8125 164.025 81.7396 163.879 81.5938C163.405 81.849 162.913 82.0312 162.402 82.1406C161.892 82.2135 161.382 82.25 160.871 82.25C160.215 82.25 159.559 82.2135 158.902 82.1406C158.283 82.0312 157.645 81.9219 156.988 81.8125C156.624 81.3021 156.113 80.9193 155.457 80.6641C154.801 80.3724 154.217 80.099 153.707 79.8438C152.65 78.3854 151.884 76.9818 151.41 75.6328C150.936 74.2474 150.444 72.6979 149.934 70.9844C150.007 70.474 150.134 69.9818 150.316 69.5078C150.499 68.9974 150.572 68.4505 150.535 67.8672C151.191 65.9714 152.048 64.2578 153.105 62.7266C154.199 61.1589 155.439 59.6641 156.824 58.2422C156.824 58.0234 156.861 57.8411 156.934 57.6953C157.043 57.5495 157.061 57.3307 156.988 57.0391C157.025 57.0755 157.098 57.0938 157.207 57.0938C157.499 57.0938 157.681 57.0208 157.754 56.875C157.827 56.6927 157.845 56.4922 157.809 56.2734C159.121 55.4349 160.306 54.4688 161.363 53.375C162.457 52.2812 163.697 51.3698 165.082 50.6406C165.191 50.3125 165.374 50.0391 165.629 49.8203C165.884 49.6016 166.085 49.3464 166.23 49.0547C167.397 48.7266 168.454 48.2344 169.402 47.5781C170.35 46.9219 171.353 46.3385 172.41 45.8281C172.993 45.5 173.54 45.2812 174.051 45.1719C174.598 45.026 175.181 44.8802 175.801 44.7344C176.02 44.6615 176.22 44.6068 176.402 44.5703C176.585 44.5339 176.785 44.5156 177.004 44.5156C177.66 44.5156 178.298 44.6432 178.918 44.8984C179.538 45.1172 180.176 45.2266 180.832 45.2266C181.014 45.2266 181.16 45.2266 181.27 45.2266C181.415 45.1901 181.561 45.1536 181.707 45.1172C182.327 45.8828 183.111 46.4661 184.059 46.8672C184.277 47.4141 184.533 47.888 184.824 48.2891C185.152 48.6901 185.48 49.0911 185.809 49.4922C186.137 49.8568 186.428 50.276 186.684 50.75C186.975 51.1875 187.158 51.7161 187.23 52.3359ZM181.762 55.1797C181.762 54.9974 181.743 54.8333 181.707 54.6875C181.342 54.5781 180.996 54.4323 180.668 54.25C180.34 54.0677 179.975 53.9766 179.574 53.9766C179.319 53.9766 179.064 54.0312 178.809 54.1406C178.772 53.8854 178.663 53.7031 178.48 53.5938C178.335 53.4844 178.152 53.3932 177.934 53.3203C177.751 53.2109 177.551 53.138 177.332 53.1016C177.15 53.0286 176.986 52.9193 176.84 52.7734C176.73 52.4818 176.603 52.1901 176.457 51.8984C176.348 51.5703 176.129 51.3333 175.801 51.1875C175.473 51.5156 175.09 51.7891 174.652 52.0078C174.215 52.1901 173.759 52.3724 173.285 52.5547C172.848 52.737 172.41 52.9557 171.973 53.2109C171.572 53.4661 171.225 53.776 170.934 54.1406H169.949C169.73 54.5417 169.421 54.8516 169.02 55.0703C168.618 55.2526 168.272 55.526 167.98 55.8906C167.397 56.1823 166.85 56.5469 166.34 56.9844C165.866 57.3854 165.392 57.8229 164.918 58.2969C164.444 58.7344 163.97 59.1901 163.496 59.6641C163.059 60.138 162.585 60.5755 162.074 60.9766C161.6 61.9974 161.072 62.8906 160.488 63.6562C159.941 64.3854 159.413 65.1328 158.902 65.8984C158.428 66.6641 158.009 67.5026 157.645 68.4141C157.316 69.2891 157.152 70.3828 157.152 71.6953V72.2422C157.152 72.4245 157.171 72.6068 157.207 72.7891C157.681 73.2995 158.064 73.8464 158.355 74.4297C158.684 75.013 159.212 75.4323 159.941 75.6875C160.671 75.9792 161.436 76.1068 162.238 76.0703C163.077 76.0339 163.879 76.125 164.645 76.3438C166.395 76.0156 168.072 75.487 169.676 74.7578C171.316 73.9922 172.866 73.0807 174.324 72.0234C174.543 71.8411 174.798 71.6589 175.09 71.4766C175.382 71.2578 175.618 71.0391 175.801 70.8203C175.983 70.638 176.129 70.4375 176.238 70.2188C176.384 70 176.53 69.7995 176.676 69.6172C176.967 69.1432 177.296 68.6693 177.66 68.1953C178.025 67.7214 178.408 67.2839 178.809 66.8828C178.991 66.0807 179.228 65.3151 179.52 64.5859C179.811 63.8203 180.103 63.0729 180.395 62.3438C180.686 61.6146 180.923 60.8672 181.105 60.1016C181.324 59.3359 181.434 58.5339 181.434 57.6953C181.434 57.513 181.415 57.3125 181.379 57.0938C181.379 56.875 181.361 56.6745 181.324 56.4922C181.616 56.0911 181.762 55.6536 181.762 55.1797ZM106.758 129.039C106.758 129.404 106.63 129.641 106.375 129.75C106.12 129.859 105.992 130.078 105.992 130.406C105.992 130.516 106.029 130.607 106.102 130.68C106.174 130.753 106.211 130.862 106.211 131.008V131.227C105.773 133.341 105.135 135.182 104.297 136.75C103.495 138.318 102.547 139.758 101.453 141.07C100.359 142.383 99.1198 143.622 97.7344 144.789C96.3854 145.956 94.9271 147.177 93.3594 148.453C92.9219 148.818 92.4661 149.182 91.9922 149.547C91.5547 149.911 91.1354 150.294 90.7344 150.695L89.5312 151.844C89.4948 151.88 89.2943 151.971 88.9297 152.117C88.5651 152.227 88.3464 152.299 88.2734 152.336C87.763 152.555 87.2161 152.81 86.6328 153.102C86.0859 153.393 85.612 153.758 85.2109 154.195C84.4818 154.195 83.862 154.305 83.3516 154.523C82.8411 154.742 82.276 155.034 81.6562 155.398C81.474 155.398 81.3099 155.362 81.1641 155.289C81.0547 155.216 80.9271 155.143 80.7812 155.07C80.6354 154.997 80.4714 154.961 80.2891 154.961C80.1432 154.924 79.9427 154.943 79.6875 155.016C79.25 154.286 78.776 153.667 78.2656 153.156C77.7552 152.646 77.0625 152.336 76.1875 152.227C76.0781 151.607 75.8229 151.133 75.4219 150.805C75.0208 150.44 74.6198 150.057 74.2188 149.656C74.1458 149.438 74.0911 149.182 74.0547 148.891C74.0182 148.599 73.9453 148.326 73.8359 148.07C73.7266 147.815 73.5807 147.596 73.3984 147.414C73.2161 147.232 72.9609 147.141 72.6328 147.141C72.5964 146.922 72.6875 146.812 72.9062 146.812C73.125 146.812 73.2344 146.721 73.2344 146.539C73.2344 146.32 73.1979 146.102 73.125 145.883C73.0521 145.664 73.0156 145.427 73.0156 145.172C73.0156 144.99 73.0339 144.826 73.0703 144.68C73.1068 144.534 73.1615 144.37 73.2344 144.188C73.125 143.203 73.0703 142.201 73.0703 141.18C73.0703 139.211 73.1979 137.279 73.4531 135.383C73.7448 133.451 73.8906 131.5 73.8906 129.531C73.8906 128.656 73.8359 127.781 73.7266 126.906C73.6536 126.031 73.4896 125.174 73.2344 124.336C72.3958 124.518 71.5573 124.737 70.7188 124.992C69.8802 125.211 69.0964 125.521 68.3672 125.922C67.9661 125.667 67.5469 125.521 67.1094 125.484C66.6354 125.411 66.1797 125.302 65.7422 125.156C65.487 124.646 65.3594 124.117 65.3594 123.57C65.3594 123.06 65.4505 122.568 65.6328 122.094L66.1797 120.672C67.0547 120.49 67.9297 120.216 68.8047 119.852C69.6432 119.487 70.5 119.159 71.375 118.867C71.6667 118.794 72.0312 118.703 72.4688 118.594C72.9427 118.484 73.2708 118.393 73.4531 118.32C73.7083 118.211 73.8724 118.01 73.9453 117.719C74.0547 117.391 74.2005 117.117 74.3828 116.898H75.3125C75.5312 116.898 75.7682 116.917 76.0234 116.953C76.2786 116.953 76.5156 117.008 76.7344 117.117C78.0469 116.789 79.3594 116.589 80.6719 116.516C81.9844 116.406 83.3333 116.26 84.7188 116.078C84.8646 116.078 85.0833 116.06 85.375 116.023L86.3047 115.859C86.6328 115.786 86.9245 115.732 87.1797 115.695C87.4714 115.622 87.6719 115.586 87.7812 115.586C87.8906 115.586 87.9453 115.641 87.9453 115.75H88.875C90.4427 115.75 91.974 115.951 93.4688 116.352L97.9531 117.555C98.5729 118.065 99.1927 118.557 99.8125 119.031C100.432 119.505 101.125 119.924 101.891 120.289C102.073 120.872 102.346 121.346 102.711 121.711C103.112 122.039 103.549 122.404 104.023 122.805C104.206 123.279 104.443 123.789 104.734 124.336C105.062 124.846 105.372 125.375 105.664 125.922C105.956 126.469 106.211 127.016 106.43 127.562C106.648 128.073 106.758 128.565 106.758 129.039ZM101.672 129.859C101.271 129.021 100.888 128.146 100.523 127.234C100.159 126.323 99.7031 125.503 99.1562 124.773C98.5 124.591 97.8255 124.372 97.1328 124.117C96.4766 123.826 96.0208 123.333 95.7656 122.641C95.6927 122.677 95.5651 122.695 95.3828 122.695C95.0547 122.695 94.763 122.568 94.5078 122.312C94.2526 122.057 93.9609 121.893 93.6328 121.82C93.3411 121.784 92.9401 121.729 92.4297 121.656C91.9557 121.583 91.4453 121.529 90.8984 121.492C90.3516 121.456 89.8047 121.419 89.2578 121.383C88.7474 121.346 88.3464 121.328 88.0547 121.328C87.763 121.328 87.4531 121.346 87.125 121.383C86.8333 121.383 86.5234 121.401 86.1953 121.438C85.9036 121.438 85.7214 121.492 85.6484 121.602C85.5755 121.674 85.4297 121.747 85.2109 121.82C85.0286 121.747 84.8281 121.711 84.6094 121.711H83.9531C83.1875 121.711 82.4219 121.839 81.6562 122.094C80.9271 122.312 80.1979 122.622 79.4688 123.023V123.242C79.4688 123.534 79.5964 123.698 79.8516 123.734C80.1068 123.771 80.2526 123.917 80.2891 124.172C80.1068 124.172 79.9609 124.19 79.8516 124.227C79.7422 124.227 79.6875 124.354 79.6875 124.609C79.6875 124.974 79.724 125.375 79.7969 125.812C79.9062 126.25 79.9609 126.688 79.9609 127.125C79.9609 127.453 79.9245 127.836 79.8516 128.273C79.7786 128.711 79.5964 129.057 79.3047 129.312C79.6693 129.641 79.8516 130.078 79.8516 130.625C79.8516 130.99 79.7786 131.372 79.6328 131.773C79.487 132.174 79.3047 132.521 79.0859 132.812C79.013 134.344 78.8672 135.893 78.6484 137.461C78.4297 139.029 78.3203 140.578 78.3203 142.109C78.3203 142.875 78.3568 143.622 78.4297 144.352C78.5391 145.081 78.7031 145.81 78.9219 146.539C79.3229 146.94 79.7422 147.25 80.1797 147.469C80.6536 147.688 81.1458 147.906 81.6562 148.125V148.289C81.6562 148.398 81.5833 148.508 81.4375 148.617C81.2917 148.727 81.2188 148.872 81.2188 149.055C81.2188 149.201 81.2917 149.273 81.4375 149.273C82.9688 148.836 84.4089 148.307 85.7578 147.688C87.1068 147.068 88.3646 146.229 89.5312 145.172C89.6406 145.062 89.75 145.008 89.8594 145.008C89.9323 145.008 90.0234 145.026 90.1328 145.062C90.2786 145.099 90.4062 145.135 90.5156 145.172L90.4609 144.953C90.4609 144.734 90.5156 144.534 90.625 144.352C90.7708 144.169 90.9349 144.005 91.1172 143.859L91.6641 143.367C91.8464 143.185 91.9922 143.003 92.1016 142.82C92.3932 142.747 92.5938 142.602 92.7031 142.383C92.849 142.164 93.0859 142.055 93.4141 142.055C93.487 141.654 93.6875 141.362 94.0156 141.18C94.3438 140.961 94.5443 140.651 94.6172 140.25C95.3464 139.849 95.9844 139.357 96.5312 138.773C97.1146 138.19 97.6432 137.57 98.1172 136.914C98.6276 136.258 99.1016 135.583 99.5391 134.891C99.9766 134.161 100.432 133.469 100.906 132.812V132.594C100.906 132.01 100.997 131.536 101.18 131.172C101.398 130.807 101.562 130.37 101.672 129.859ZM149.852 152.008C149.742 152.518 149.505 152.938 149.141 153.266C148.812 153.557 148.411 153.794 147.938 153.977C147.464 154.159 146.971 154.286 146.461 154.359C145.987 154.396 145.549 154.414 145.148 154.414C144.966 154.414 144.784 154.414 144.602 154.414C144.456 154.378 144.292 154.359 144.109 154.359C143.927 154.359 143.836 154.451 143.836 154.633C143.836 154.815 143.745 154.943 143.562 155.016C143.38 154.943 143.198 154.888 143.016 154.852C142.833 154.815 142.651 154.797 142.469 154.797C142.214 154.797 141.958 154.815 141.703 154.852C141.484 154.888 141.266 154.906 141.047 154.906C140.755 154.906 140.536 154.87 140.391 154.797C140.281 154.724 140.172 154.651 140.062 154.578C139.99 154.469 139.898 154.359 139.789 154.25C139.716 154.141 139.589 154.049 139.406 153.977C139.151 153.867 138.932 153.849 138.75 153.922C138.604 153.995 138.367 153.885 138.039 153.594C137.602 153.229 137.219 152.792 136.891 152.281C136.599 151.734 136.307 151.169 136.016 150.586C135.724 150.003 135.414 149.419 135.086 148.836C134.758 148.253 134.375 147.742 133.938 147.305H133.5C132.844 147.305 132.388 147.578 132.133 148.125C131.951 148.016 131.768 147.888 131.586 147.742C131.404 147.56 131.203 147.414 130.984 147.305C130.146 147.56 129.271 147.779 128.359 147.961C127.448 148.143 126.536 148.234 125.625 148.234H124.859C124.641 148.234 124.404 148.198 124.148 148.125C123.784 148.271 123.456 148.453 123.164 148.672C122.872 148.854 122.544 148.945 122.18 148.945C121.961 148.945 121.706 148.872 121.414 148.727C121.195 148.727 121.086 148.818 121.086 149C121.122 149.182 121.013 149.273 120.758 149.273H120.266C119.755 149.273 119.245 149.292 118.734 149.328C118.26 149.365 117.768 149.383 117.258 149.383C116.565 149.383 115.854 149.292 115.125 149.109C114.943 149.219 114.742 149.273 114.523 149.273C114.378 149.346 114.268 149.474 114.195 149.656C114.122 149.802 114.049 149.948 113.977 150.094C113.904 150.203 113.794 150.312 113.648 150.422C113.539 150.495 113.375 150.513 113.156 150.477C113.083 150.914 112.901 151.26 112.609 151.516C112.318 151.771 112.172 152.154 112.172 152.664C111.771 152.883 111.443 153.156 111.188 153.484C110.932 153.812 110.677 154.159 110.422 154.523C110.167 154.888 109.893 155.234 109.602 155.562C109.346 155.891 109.018 156.146 108.617 156.328C108.435 156.547 108.38 156.893 108.453 157.367C108.052 157.695 107.56 157.987 106.977 158.242C106.393 158.497 105.846 158.625 105.336 158.625C104.279 158.625 103.549 158.06 103.148 156.93C103.148 156.565 103.185 156.182 103.258 155.781C103.294 155.344 103.367 154.943 103.477 154.578C103.586 154.177 103.75 153.831 103.969 153.539C104.188 153.211 104.497 152.974 104.898 152.828C104.898 152.5 104.789 152.281 104.57 152.172C104.352 152.026 104.26 151.789 104.297 151.461C105.281 150.987 106.138 150.367 106.867 149.602C107.596 148.836 108.253 148.034 108.836 147.195C109.456 146.32 110.076 145.445 110.695 144.57C111.315 143.695 112.008 142.911 112.773 142.219V141.07C113.867 139.904 114.578 138.591 114.906 137.133C115.307 137.06 115.562 136.878 115.672 136.586C115.818 136.294 115.891 135.948 115.891 135.547C116.073 135.547 116.182 135.474 116.219 135.328C116.292 135.146 116.456 135.091 116.711 135.164C117.039 134.289 117.404 133.487 117.805 132.758C118.206 132.029 118.607 131.299 119.008 130.57C119.409 129.805 119.755 129.021 120.047 128.219C120.375 127.417 120.612 126.523 120.758 125.539C121.268 125.503 121.542 125.266 121.578 124.828C121.651 124.354 121.724 123.935 121.797 123.57C122.344 123.06 122.745 122.458 123 121.766C123.292 121.073 123.547 120.362 123.766 119.633C123.984 118.867 124.221 118.12 124.477 117.391C124.768 116.625 125.169 115.951 125.68 115.367V115.203C125.68 115.021 125.607 114.911 125.461 114.875C125.315 114.802 125.242 114.674 125.242 114.492C125.279 114.456 125.297 114.419 125.297 114.383C125.734 114.201 126.062 113.909 126.281 113.508C126.5 113.07 126.828 112.76 127.266 112.578C128.031 113.198 128.706 113.581 129.289 113.727C129.872 113.836 130.638 113.927 131.586 114C132.06 114.51 132.315 115.13 132.352 115.859C132.424 116.552 132.552 117.245 132.734 117.938C133.026 119.104 133.336 120.253 133.664 121.383C134.029 122.477 134.302 123.607 134.484 124.773C134.594 125.466 134.794 126.122 135.086 126.742C135.378 127.362 135.578 128 135.688 128.656C135.76 129.167 135.76 129.75 135.688 130.406C135.615 131.026 135.688 131.573 135.906 132.047L136.289 132.922C136.471 133.323 136.617 133.742 136.727 134.18C136.872 134.617 137 135.055 137.109 135.492C137.401 136.586 137.656 137.771 137.875 139.047C138.13 140.286 138.513 141.417 139.023 142.438C139.206 142.802 139.479 143.057 139.844 143.203C140.245 143.349 140.682 143.458 141.156 143.531C141.63 143.568 142.086 143.586 142.523 143.586C142.997 143.549 143.398 143.531 143.727 143.531H144.273C144.492 143.531 144.711 143.568 144.93 143.641C145.076 143.932 145.148 144.188 145.148 144.406C145.148 144.844 145.003 145.19 144.711 145.445C144.419 145.701 144.273 145.992 144.273 146.32C144.273 146.503 144.346 146.703 144.492 146.922C144.346 146.885 144.128 146.867 143.836 146.867C142.997 146.867 142.177 147.013 141.375 147.305C141.667 147.924 142.049 148.453 142.523 148.891C143.034 149.292 143.562 149.674 144.109 150.039C144.474 149.747 144.857 149.602 145.258 149.602C145.695 149.602 146.096 149.711 146.461 149.93C146.862 150.112 147.281 150.203 147.719 150.203C148.047 150.203 148.284 150.148 148.43 150.039C148.721 150.367 148.958 150.714 149.141 151.078C149.323 151.406 149.56 151.716 149.852 152.008ZM132.734 143.258C132.661 142.638 132.534 142.201 132.352 141.945C132.206 141.654 132.078 141.307 131.969 140.906C131.823 140.396 131.714 139.849 131.641 139.266C131.604 138.682 131.531 138.117 131.422 137.57C131.167 136.331 130.875 135.091 130.547 133.852C130.255 132.612 129.872 131.409 129.398 130.242C129.544 130.023 129.617 129.823 129.617 129.641V129.477C129.289 129.112 129.052 128.674 128.906 128.164C128.76 127.617 128.615 127.089 128.469 126.578C128.359 126.031 128.195 125.539 127.977 125.102C127.794 124.628 127.484 124.245 127.047 123.953C126.938 124.172 126.883 124.427 126.883 124.719C126.883 124.974 126.901 125.211 126.938 125.43C127.01 125.648 127.047 125.885 127.047 126.141C126.682 126.323 126.409 126.615 126.227 127.016C126.081 127.38 125.826 127.672 125.461 127.891C125.169 129.057 124.75 130.169 124.203 131.227C123.656 132.247 123.073 133.268 122.453 134.289C121.87 135.31 121.305 136.349 120.758 137.406C120.211 138.427 119.773 139.503 119.445 140.633C118.971 140.961 118.643 141.38 118.461 141.891C118.315 142.401 118.242 142.911 118.242 143.422C118.57 143.604 118.935 143.714 119.336 143.75C119.773 143.75 120.193 143.75 120.594 143.75C120.995 143.75 121.378 143.786 121.742 143.859C122.107 143.932 122.435 144.115 122.727 144.406C123.201 144.26 123.711 144.169 124.258 144.133C124.841 144.06 125.315 143.896 125.68 143.641C126.409 143.896 127.193 144.023 128.031 144.023C128.469 144.023 128.888 143.987 129.289 143.914C129.727 143.841 130.146 143.75 130.547 143.641C130.875 143.714 131.13 143.841 131.312 144.023C131.495 144.169 131.768 144.224 132.133 144.188C132.315 144.042 132.424 143.896 132.461 143.75C132.497 143.568 132.589 143.404 132.734 143.258ZM61.1484 173.094C60.638 173.823 60.0911 174.516 59.5078 175.172C58.9609 175.792 58.2682 176.284 57.4297 176.648C56.9922 179.164 56.6276 181.698 56.3359 184.25C56.0807 186.802 55.7891 189.354 55.4609 191.906C55.1693 194.458 54.8229 197.01 54.4219 199.562C54.0573 202.078 53.5469 204.576 52.8906 207.055L52.9453 207.711C53.0182 208.44 52.9271 209.133 52.6719 209.789C52.4167 210.445 52.3073 211.156 52.3438 211.922C51.8333 213.198 51.3958 214.62 51.0312 216.188C50.6667 217.719 50.4479 219.177 50.375 220.562C50.0104 221.182 49.7005 221.857 49.4453 222.586C49.2266 223.315 48.9896 224.062 48.7344 224.828C48.5156 225.557 48.2604 226.268 47.9688 226.961C47.6771 227.617 47.2943 228.219 46.8203 228.766C46.7109 229.604 46.4922 230.388 46.1641 231.117C45.8724 231.883 45.526 232.63 45.125 233.359C44.7604 234.089 44.3958 234.799 44.0312 235.492C43.7031 236.221 43.4661 236.987 43.3203 237.789C42.7005 238.737 42.0807 239.648 41.4609 240.523C40.8411 241.435 40.276 242.383 39.7656 243.367C39.2917 243.586 38.8724 243.823 38.5078 244.078C38.1797 244.37 37.8516 244.625 37.5234 244.844C37.1953 245.099 36.8125 245.318 36.375 245.5C35.974 245.682 35.4818 245.773 34.8984 245.773C34.7526 245.773 34.6068 245.755 34.4609 245.719C34.3516 245.719 34.224 245.719 34.0781 245.719C33.5677 245.318 33.0573 244.917 32.5469 244.516C32.0365 244.151 31.4896 243.823 30.9062 243.531C30.9062 243.312 30.8698 243.13 30.7969 242.984C30.7604 242.839 30.724 242.693 30.6875 242.547C30.651 242.401 30.6328 242.255 30.6328 242.109C30.6328 241.964 30.6693 241.781 30.7422 241.562C30.4141 241.344 30.0312 240.943 29.5938 240.359C29.1927 239.812 28.9922 239.339 28.9922 238.938C28.9922 238.573 29.1198 238.391 29.375 238.391C29.3021 238.026 29.1745 237.661 28.9922 237.297C28.8464 236.969 28.7734 236.622 28.7734 236.258C28.7734 236.003 28.8464 235.729 28.9922 235.438C28.5911 234.49 28.2266 233.505 27.8984 232.484C27.5703 231.5 27.3516 230.479 27.2422 229.422C26.8776 228.948 26.5859 228.401 26.3672 227.781C26.1849 227.125 26.0391 226.451 25.9297 225.758C25.8203 225.065 25.7292 224.391 25.6562 223.734C25.5833 223.042 25.4922 222.404 25.3828 221.82C25.3464 221.602 25.2552 221.255 25.1094 220.781C24.9635 220.271 24.8906 219.924 24.8906 219.742C24.8906 219.523 24.9271 219.359 25 219.25C25.1094 219.141 25.2005 218.995 25.2734 218.812C24.8359 217.062 24.4714 215.294 24.1797 213.508C23.9245 211.721 23.6693 209.935 23.4141 208.148C23.1953 206.362 22.9219 204.594 22.5938 202.844C22.3021 201.057 21.8828 199.307 21.3359 197.594V197.102C21.3359 195.935 20.8802 195.005 19.9688 194.312C20.151 193.766 20.2422 193.31 20.2422 192.945C20.2422 192.471 20.1693 192.016 20.0234 191.578C19.9141 191.141 19.7865 190.703 19.6406 190.266C19.4948 189.828 19.3854 189.391 19.3125 188.953C19.276 188.516 19.3125 188.078 19.4219 187.641C19.0208 187.203 18.6927 186.729 18.4375 186.219C18.1823 185.708 17.8542 185.271 17.4531 184.906L17.3984 184.578C17.3984 184.396 17.4531 184.232 17.5625 184.086C17.6354 183.94 17.6719 183.776 17.6719 183.594C17.6719 183.339 17.6172 183.12 17.5078 182.938C17.362 182.755 17.2161 182.591 17.0703 182.445C16.888 182.299 16.7422 182.154 16.6328 182.008C16.487 181.862 16.4141 181.698 16.4141 181.516C16.4141 181.078 16.5599 180.732 16.8516 180.477C17.1432 180.221 17.4714 180.003 17.8359 179.82C18.2005 179.602 18.5469 179.383 18.875 179.164C19.2396 178.945 19.4766 178.635 19.5859 178.234C19.8776 178.307 20.1693 178.362 20.4609 178.398C20.7526 178.398 21.0443 178.471 21.3359 178.617C21.3724 178.581 21.3906 178.526 21.3906 178.453C21.3906 178.344 21.2083 178.253 20.8438 178.18C20.5156 178.07 20.2969 177.943 20.1875 177.797C20.4792 177.724 20.6979 177.688 20.8438 177.688C21.5729 177.688 22.2656 177.87 22.9219 178.234C23.6146 178.599 24.2708 178.982 24.8906 179.383C24.9635 179.711 24.9818 180.057 24.9453 180.422C24.9089 180.75 25.0182 181.06 25.2734 181.352C25.237 181.534 25.2188 181.698 25.2188 181.844C25.2552 181.99 25.2734 182.135 25.2734 182.281C25.2734 182.464 25.237 182.628 25.1641 182.773C25.1276 182.883 25.0365 182.938 24.8906 182.938C25.1458 183.375 25.3099 183.904 25.3828 184.523C25.4922 185.143 25.5833 185.781 25.6562 186.438C25.7656 187.094 25.8932 187.732 26.0391 188.352C26.1849 188.971 26.4583 189.518 26.8594 189.992C26.7865 190.211 26.7318 190.43 26.6953 190.648C26.6953 190.867 26.6953 191.104 26.6953 191.359C26.6953 192.526 26.8411 193.674 27.1328 194.805C27.4245 195.935 27.5703 197.083 27.5703 198.25C27.5703 198.943 27.4609 199.581 27.2422 200.164C27.2422 200.492 27.3516 200.766 27.5703 200.984C27.7891 201.167 27.9349 201.422 28.0078 201.75C27.8255 202.188 27.7344 202.607 27.7344 203.008C27.7344 203.846 27.8984 204.648 28.2266 205.414C28.5547 206.143 28.7188 206.909 28.7188 207.711C28.7188 207.966 28.6823 208.203 28.6094 208.422C28.5365 208.641 28.4635 208.841 28.3906 209.023C28.7188 209.352 28.8828 209.771 28.8828 210.281C28.9193 210.792 29.0833 211.211 29.375 211.539C29.3385 211.721 29.3021 211.904 29.2656 212.086C29.2656 212.268 29.1745 212.414 28.9922 212.523C29.1745 212.779 29.2656 213.125 29.2656 213.562C29.3021 213.964 29.4661 214.201 29.7578 214.273C29.6849 214.456 29.6302 214.62 29.5938 214.766C29.5573 214.911 29.5391 215.076 29.5391 215.258C29.5391 215.659 29.5938 216.023 29.7031 216.352L30.0312 217.336C30.1406 217.664 30.2135 218.01 30.25 218.375C30.3229 218.74 30.2865 219.141 30.1406 219.578C30.2865 219.797 30.3958 220.052 30.4688 220.344C30.5781 220.635 30.6693 220.945 30.7422 221.273C30.8151 221.565 30.9245 221.839 31.0703 222.094C31.2161 222.312 31.4349 222.458 31.7266 222.531C31.763 222.75 31.6719 222.859 31.4531 222.859C31.2708 222.859 31.1797 222.951 31.1797 223.133C31.1797 223.424 31.2891 223.789 31.5078 224.227C31.7266 224.628 31.9271 224.919 32.1094 225.102C32.0729 225.247 32.0547 225.393 32.0547 225.539V226.031C32.0547 226.542 32.1276 227.07 32.2734 227.617C32.4193 228.128 32.5469 228.638 32.6562 229.148C32.8021 229.695 32.9115 230.224 32.9844 230.734C33.0573 231.245 33.0208 231.719 32.875 232.156C33.1667 232.667 33.4219 233.214 33.6406 233.797C33.8594 234.38 34.2057 234.872 34.6797 235.273C34.6797 235.893 34.8073 236.477 35.0625 237.023C35.3177 237.607 35.6458 238.154 36.0469 238.664C36.4115 238.664 36.6849 238.536 36.8672 238.281C37.0495 238.062 37.1953 237.807 37.3047 237.516C37.4141 237.224 37.5417 236.951 37.6875 236.695C37.8333 236.44 38.0703 236.294 38.3984 236.258C38.4349 235.893 38.526 235.583 38.6719 235.328C38.8542 235.109 39.0182 234.872 39.1641 234.617C39.3464 234.362 39.4922 234.089 39.6016 233.797C39.7474 233.505 39.8021 233.141 39.7656 232.703L40.3672 232.539C40.5495 231.555 40.8229 230.661 41.1875 229.859C41.5885 229.094 42.026 228.292 42.5 227.453V227.18C42.5 226.815 42.5547 226.505 42.6641 226.25C42.7734 225.995 42.7917 225.667 42.7188 225.266C42.974 225.193 43.1562 225.047 43.2656 224.828C43.375 224.609 43.4661 224.391 43.5391 224.172C43.612 223.917 43.6849 223.68 43.7578 223.461C43.8672 223.206 44.0312 223.023 44.25 222.914V222.477C44.2135 222.148 44.2318 221.839 44.3047 221.547C44.4141 221.219 44.3958 220.891 44.25 220.562C44.5417 220.453 44.7604 220.271 44.9062 220.016C45.0521 219.76 45.1615 219.487 45.2344 219.195C45.3438 218.904 45.3984 218.594 45.3984 218.266C45.4349 217.938 45.4531 217.646 45.4531 217.391C45.7083 217.062 45.8906 216.68 46 216.242C46.1094 215.768 46.2005 215.294 46.2734 214.82C46.3464 214.346 46.4375 213.891 46.5469 213.453C46.6927 213.016 46.9115 212.633 47.2031 212.305C47.1302 212.122 47.0938 211.958 47.0938 211.812V211.32C47.0938 210.628 47.2031 210.008 47.4219 209.461C47.6406 208.878 47.8411 208.258 48.0234 207.602C48.4974 205.961 48.8255 204.284 49.0078 202.57C49.2266 200.82 49.5365 199.107 49.9375 197.43C49.974 197.247 50.0469 196.956 50.1562 196.555C50.2656 196.154 50.375 195.753 50.4844 195.352C50.5938 194.914 50.6849 194.531 50.7578 194.203C50.8672 193.839 50.9219 193.602 50.9219 193.492C50.9219 193.201 50.849 193 50.7031 192.891C50.5938 192.781 50.5391 192.599 50.5391 192.344C50.7578 192.016 50.9036 191.596 50.9766 191.086C51.0495 190.576 51.1042 190.047 51.1406 189.5C51.1771 188.917 51.1771 188.37 51.1406 187.859C51.1406 187.312 51.1406 186.839 51.1406 186.438C51.1406 186.036 51.2318 185.526 51.4141 184.906C51.5964 184.286 51.724 183.74 51.7969 183.266C51.9792 182.026 52.0885 180.805 52.125 179.602C52.1979 178.362 52.2708 177.122 52.3438 175.883C52.599 175.737 52.7812 175.555 52.8906 175.336C53 175.081 53.0547 174.826 53.0547 174.57C53.0547 174.169 53 173.786 52.8906 173.422C52.8177 173.057 52.7812 172.674 52.7812 172.273C52.7812 172.091 52.7995 171.909 52.8359 171.727C52.8724 171.508 52.9635 171.326 53.1094 171.18C53.0729 170.924 53.0365 170.669 53 170.414C53 170.159 52.9089 169.94 52.7266 169.758C52.9089 169.284 53 168.81 53 168.336C53 167.898 52.9453 167.461 52.8359 167.023C52.763 166.586 52.7266 166.13 52.7266 165.656C52.7266 164.745 53.1094 164.089 53.875 163.688H54.6406C55.0052 163.688 55.3698 163.669 55.7344 163.633C56.099 163.596 56.4818 163.487 56.8828 163.305C57.3568 163.815 57.849 164.38 58.3594 165C58.8698 165.583 59.3073 166.221 59.6719 166.914C60.0365 167.607 60.3099 168.318 60.4922 169.047C60.6745 169.776 60.6927 170.542 60.5469 171.344C60.6927 171.635 60.7839 171.927 60.8203 172.219C60.8568 172.51 60.9661 172.802 61.1484 173.094ZM49.9922 202.898C49.8464 202.862 49.737 202.807 49.6641 202.734C49.6276 202.625 49.5182 202.552 49.3359 202.516V203.117H49.7734L49.9922 202.898ZM95.9297 193.219V193.438C95.6745 193.51 95.5469 193.693 95.5469 193.984C95.1458 194.167 94.7266 194.312 94.2891 194.422C93.8516 194.495 93.4323 194.622 93.0312 194.805C92.6302 194.768 92.2109 194.75 91.7734 194.75C91.3724 194.714 90.9714 194.695 90.5703 194.695C89.4766 194.695 88.3828 194.732 87.2891 194.805C86.1953 194.878 85.1016 194.878 84.0078 194.805C83.4974 195.096 82.9323 195.333 82.3125 195.516C81.7292 195.661 81.1641 195.734 80.6172 195.734C80.1797 195.734 79.7969 195.68 79.4688 195.57C78.5938 196.008 77.6276 196.372 76.5703 196.664C75.5495 196.956 74.5104 197.247 73.4531 197.539C72.3958 197.794 71.375 198.104 70.3906 198.469C69.4427 198.797 68.6042 199.271 67.875 199.891C67.8021 200.401 67.7474 200.911 67.7109 201.422C67.6745 201.896 67.6562 202.37 67.6562 202.844C67.6562 203.354 67.6745 203.828 67.7109 204.266C67.7839 204.703 67.9115 205.141 68.0938 205.578C68.276 205.651 68.4766 205.706 68.6953 205.742C68.9505 205.779 69.1693 205.797 69.3516 205.797C69.5339 205.797 69.7161 205.779 69.8984 205.742C70.0807 205.669 70.2083 205.542 70.2812 205.359C70.8281 205.286 71.375 205.268 71.9219 205.305C72.4688 205.305 73.0156 205.305 73.5625 205.305C74.1094 205.305 74.638 205.286 75.1484 205.25C75.6953 205.214 76.224 205.122 76.7344 204.977C77.3177 204.831 77.8828 204.74 78.4297 204.703C79.013 204.667 79.5781 204.63 80.125 204.594C80.6719 204.557 81.237 204.503 81.8203 204.43C82.4036 204.32 83.0052 204.12 83.625 203.828C84.099 204.01 84.5729 204.102 85.0469 204.102C85.5573 204.102 86.0495 204.138 86.5234 204.211C86.7786 204.393 86.9792 204.594 87.125 204.812C87.3073 205.031 87.3984 205.286 87.3984 205.578C87.3984 206.089 87.2161 206.599 86.8516 207.109C86.487 207.62 86.1953 208.094 85.9766 208.531H85.375C84.5 208.531 83.6432 208.659 82.8047 208.914C82.0026 209.133 81.1823 209.406 80.3438 209.734C79.5417 210.026 78.7214 210.299 77.8828 210.555C77.0807 210.773 76.2422 210.883 75.3672 210.883C75.2214 210.883 75.1302 210.974 75.0938 211.156C75.0938 211.302 75.0573 211.411 74.9844 211.484C74.8021 211.448 74.5286 211.43 74.1641 211.43C73.3255 211.43 72.5234 211.521 71.7578 211.703C70.9922 211.885 70.2083 211.977 69.4062 211.977C69.1875 211.977 68.9688 211.977 68.75 211.977C68.5312 211.94 68.3125 211.904 68.0938 211.867C67.9115 212.159 67.6745 212.359 67.3828 212.469C67.0911 212.542 66.8177 212.688 66.5625 212.906C66.4531 213.234 66.3802 213.635 66.3438 214.109C66.3438 214.583 66.3255 215.076 66.2891 215.586C66.2891 216.06 66.2526 216.516 66.1797 216.953C66.1068 217.391 65.9609 217.737 65.7422 217.992C65.7786 218.174 65.9245 218.247 66.1797 218.211C66.4349 218.138 66.5625 218.247 66.5625 218.539C66.5625 218.867 66.526 219.214 66.4531 219.578C66.3802 219.943 66.3438 220.307 66.3438 220.672C66.3438 221.365 66.4167 222.13 66.5625 222.969C66.7448 223.771 67 224.518 67.3281 225.211C67.6927 225.904 68.1667 226.487 68.75 226.961C69.3333 227.398 70.0625 227.617 70.9375 227.617C71.5208 227.617 72.0677 227.508 72.5781 227.289C73.0885 227.07 73.5078 226.706 73.8359 226.195L74.1094 226.141C74.2552 226.141 74.3828 226.159 74.4922 226.195C74.638 226.232 74.7839 226.25 74.9297 226.25C75.1484 226.25 75.4219 226.122 75.75 225.867C76.1146 225.576 76.4974 225.247 76.8984 224.883C77.3359 224.518 77.7734 224.172 78.2109 223.844C78.6484 223.479 79.0677 223.224 79.4688 223.078C79.724 222.568 79.9609 222.057 80.1797 221.547C80.4349 221.036 80.7995 220.635 81.2734 220.344V218.758C81.638 218.357 82.0208 217.992 82.4219 217.664C82.8594 217.336 83.1875 216.917 83.4062 216.406C83.5885 216.479 83.7526 216.534 83.8984 216.57C84.0807 216.607 84.263 216.625 84.4453 216.625C84.6276 216.625 84.8099 216.607 84.9922 216.57C85.2109 216.534 85.4115 216.479 85.5938 216.406C85.8854 216.807 86.1042 217.263 86.25 217.773C86.4323 218.247 86.651 218.703 86.9062 219.141C86.5781 219.797 86.1953 220.581 85.7578 221.492C85.3203 222.404 84.8464 223.315 84.3359 224.227C83.8255 225.138 83.2786 226.013 82.6953 226.852C82.1484 227.654 81.6016 228.273 81.0547 228.711C80.9453 228.82 80.7083 228.948 80.3438 229.094C79.9427 229.385 79.5781 229.659 79.25 229.914C78.9219 230.206 78.612 230.534 78.3203 230.898C77.263 231.227 76.2422 231.664 75.2578 232.211C74.3099 232.758 73.362 233.286 72.4141 233.797C71.9766 233.688 71.5026 233.633 70.9922 233.633C70.5547 233.633 70.1172 233.651 69.6797 233.688C69.2422 233.76 68.7682 233.797 68.2578 233.797C68.112 233.615 67.8932 233.487 67.6016 233.414C67.3464 233.378 67.2552 233.195 67.3281 232.867C66.0885 232.794 65.0859 232.448 64.3203 231.828C63.5547 231.245 62.8984 230.516 62.3516 229.641C61.8411 228.766 61.4219 227.818 61.0938 226.797C60.7656 225.776 60.4193 224.792 60.0547 223.844V223.68C60.0547 223.497 60.1276 223.388 60.2734 223.352C60.4193 223.315 60.4922 223.206 60.4922 223.023C60.4922 222.951 60.474 222.896 60.4375 222.859C60.3281 222.458 60.237 222.112 60.1641 221.82C60.0911 221.529 60.0547 221.182 60.0547 220.781C60.0547 220.198 60.0911 219.633 60.1641 219.086C60.237 218.503 60.2734 217.919 60.2734 217.336C60.2734 216.753 60.2005 216.242 60.0547 215.805C60.2005 215.622 60.3281 215.385 60.4375 215.094C60.5104 214.766 60.5651 214.438 60.6016 214.109C60.638 213.781 60.6562 213.453 60.6562 213.125C60.6927 212.797 60.7474 212.505 60.8203 212.25C60.6745 211.849 60.5469 211.503 60.4375 211.211C60.3281 210.883 60.2734 210.5 60.2734 210.062V209.68C60.638 209.06 60.9479 208.422 61.2031 207.766C61.4583 207.109 61.7318 206.435 62.0234 205.742V205.578C62.0234 204.521 61.987 203.464 61.9141 202.406C61.8411 201.349 61.8047 200.292 61.8047 199.234V198.195C61.8047 197.831 61.8229 197.484 61.8594 197.156C62.151 197.01 62.3698 196.81 62.5156 196.555C62.6615 196.299 62.8802 196.099 63.1719 195.953H64.9766L65.3047 195.406C65.4141 195.224 65.487 195.023 65.5234 194.805C65.9245 194.695 66.3073 194.549 66.6719 194.367C67.0729 194.148 67.4375 193.93 67.7656 193.711C68.276 193.419 68.7318 193.164 69.1328 192.945C69.5703 192.69 69.9896 192.49 70.3906 192.344C70.8281 192.161 71.2839 192.016 71.7578 191.906C72.2318 191.797 72.7786 191.706 73.3984 191.633C73.6901 191.633 73.8724 191.578 73.9453 191.469C74.0547 191.359 74.2005 191.232 74.3828 191.086C74.8203 191.159 75.2578 191.232 75.6953 191.305C76.1328 191.341 76.5703 191.359 77.0078 191.359C77.8828 191.359 78.7031 191.195 79.4688 190.867C80.5625 190.867 81.638 190.849 82.6953 190.812C83.7891 190.776 84.8828 190.758 85.9766 190.758C86.9245 190.758 87.8724 190.794 88.8203 190.867C89.7682 190.94 90.6979 191.068 91.6094 191.25C91.9375 191.141 92.3021 191.086 92.7031 191.086C93.1406 191.086 93.5781 191.141 94.0156 191.25C94.4896 191.323 94.9453 191.323 95.3828 191.25C95.4193 191.651 95.5104 191.997 95.6562 192.289C95.8385 192.544 95.9297 192.854 95.9297 193.219ZM123.109 213.945C123.109 214.346 122.964 214.656 122.672 214.875C122.38 215.057 122.234 215.312 122.234 215.641C122.234 215.786 122.307 215.969 122.453 216.188C121.943 216.188 121.596 216.352 121.414 216.68C121.232 217.008 121.049 217.372 120.867 217.773H120.156C119.974 217.773 119.828 217.81 119.719 217.883C119.609 217.956 119.5 218.065 119.391 218.211C119.318 218.32 119.208 218.503 119.062 218.758C118.37 218.904 117.695 219.141 117.039 219.469C116.419 219.76 115.799 220.089 115.18 220.453C114.596 220.781 113.995 221.128 113.375 221.492C112.755 221.82 112.117 222.094 111.461 222.312C111.133 222.859 110.659 223.297 110.039 223.625H109.875C109.693 223.661 109.529 223.643 109.383 223.57C109.273 223.461 109.128 223.406 108.945 223.406C108.836 223.406 108.763 223.424 108.727 223.461C107.633 224.19 106.411 224.555 105.062 224.555C104.698 224.555 104.352 224.536 104.023 224.5C103.695 224.427 103.349 224.391 102.984 224.391C102.875 224.391 102.802 224.427 102.766 224.5L102.656 224.719C102.62 224.792 102.565 224.865 102.492 224.938C102.456 225.01 102.328 225.047 102.109 225.047C101.708 225.047 101.307 224.992 100.906 224.883C100.505 224.773 100.086 224.755 99.6484 224.828C98.8099 224.354 98.1536 223.898 97.6797 223.461C97.2057 223.023 96.7682 222.367 96.3672 221.492C96.1849 221.091 95.9297 220.708 95.6016 220.344C95.3099 219.979 95.0911 219.578 94.9453 219.141C94.9089 218.995 94.8542 218.74 94.7812 218.375C94.7083 217.974 94.6354 217.555 94.5625 217.117C94.4896 216.68 94.4167 216.26 94.3438 215.859C94.3073 215.458 94.2891 215.185 94.2891 215.039C94.2891 214.602 94.3073 214.182 94.3438 213.781C94.4167 213.344 94.4896 212.906 94.5625 212.469C94.7812 211.083 94.9271 209.698 95 208.312C95.1094 206.891 95.4193 205.523 95.9297 204.211C95.8568 203.81 95.8203 203.427 95.8203 203.062V201.859C95.8203 201.167 95.7292 200.583 95.5469 200.109C95.8385 199.635 95.9844 199.107 95.9844 198.523C95.9844 197.867 95.7109 197.484 95.1641 197.375V197.211C95.1641 196.445 94.9089 195.844 94.3984 195.406C94.3984 194.13 94.7083 193.182 95.3281 192.562C95.9844 191.906 96.8411 191.341 97.8984 190.867C98.0443 190.648 98.099 190.466 98.0625 190.32C98.3177 190.393 98.5547 190.466 98.7734 190.539C98.9922 190.612 99.2109 190.648 99.4297 190.648C99.7943 190.648 100.122 190.594 100.414 190.484C100.523 190.922 100.797 191.195 101.234 191.305C101.708 191.378 102.091 191.487 102.383 191.633V192.344C102.383 193.474 102.656 194.549 103.203 195.57C103.057 195.862 102.966 196.172 102.93 196.5C102.893 196.828 102.875 197.138 102.875 197.43C102.875 197.867 102.893 198.305 102.93 198.742C102.966 199.18 102.984 199.599 102.984 200C102.984 200.438 102.93 200.875 102.82 201.312C102.747 201.75 102.547 202.133 102.219 202.461C102.182 202.935 102.146 203.482 102.109 204.102C102.109 204.685 102.073 205.286 102 205.906C101.964 206.526 101.872 207.128 101.727 207.711C101.581 208.294 101.362 208.768 101.07 209.133C101.034 209.68 100.997 210.245 100.961 210.828C100.961 211.375 100.961 211.904 100.961 212.414C100.961 213.216 100.997 214.164 101.07 215.258C101.18 216.352 101.435 217.263 101.836 217.992C102.018 218.284 102.365 218.503 102.875 218.648C103.422 218.794 103.859 218.867 104.188 218.867C104.589 218.867 104.99 218.812 105.391 218.703C105.828 218.557 106.138 218.32 106.32 217.992C106.539 218.029 106.685 218.138 106.758 218.32C106.831 218.503 106.958 218.648 107.141 218.758C109.219 217.883 111.297 217.044 113.375 216.242C115.453 215.44 117.495 214.51 119.5 213.453C119.792 213.599 120.102 213.672 120.43 213.672C120.794 213.672 121.159 213.635 121.523 213.562C121.888 213.49 122.253 213.453 122.617 213.453H123C123.073 213.672 123.109 213.836 123.109 213.945ZM156.852 202.461C156.706 202.826 156.56 203.172 156.414 203.5C156.268 203.828 156.159 204.193 156.086 204.594C155.831 204.776 155.539 204.922 155.211 205.031C154.919 205.104 154.609 205.195 154.281 205.305C153.953 205.378 153.643 205.487 153.352 205.633C153.096 205.742 152.896 205.924 152.75 206.18C152.641 206.727 152.586 207.237 152.586 207.711C152.586 208.331 152.695 208.859 152.914 209.297C152.805 209.625 152.732 209.971 152.695 210.336C152.659 210.701 152.641 211.047 152.641 211.375C152.641 212.578 152.786 213.781 153.078 214.984C153.37 216.151 153.534 217.336 153.57 218.539C153.57 218.721 153.552 218.922 153.516 219.141C153.479 219.359 153.461 219.56 153.461 219.742C153.461 220.508 153.753 221.018 154.336 221.273C154.227 221.456 154.172 221.62 154.172 221.766C154.172 222.057 154.208 222.312 154.281 222.531C154.354 222.75 154.372 222.987 154.336 223.242C154.518 223.607 154.701 223.935 154.883 224.227C155.065 224.482 155.193 224.81 155.266 225.211C155.01 225.721 154.701 226.195 154.336 226.633C153.971 227.034 153.716 227.544 153.57 228.164C153.424 228.128 153.26 228.109 153.078 228.109C152.823 228.109 152.622 228.164 152.477 228.273C152.331 228.383 152.203 228.51 152.094 228.656C152.021 228.839 151.93 229.003 151.82 229.148C151.711 229.331 151.565 229.458 151.383 229.531H151.219C151.036 229.568 150.872 229.549 150.727 229.477C150.617 229.44 150.508 229.422 150.398 229.422C150.326 229.422 150.18 229.458 149.961 229.531C149.669 229.167 149.469 228.729 149.359 228.219C149.25 227.745 149.195 227.271 149.195 226.797C149.195 226.286 149.268 225.831 149.414 225.43C149.013 225.102 148.758 224.609 148.648 223.953C148.576 223.297 148.484 222.75 148.375 222.312C148.083 220.964 147.737 219.651 147.336 218.375C146.971 217.099 146.753 215.786 146.68 214.438C146.643 213.927 146.625 213.435 146.625 212.961V210.117C146.625 209.643 146.643 209.188 146.68 208.75C146.68 208.422 146.698 208.112 146.734 207.82C146.807 207.492 146.844 207.164 146.844 206.836C146.844 206.398 146.698 205.979 146.406 205.578C143.818 205.688 141.357 206.161 139.023 207C136.727 207.802 134.43 208.768 132.133 209.898C131.987 210.737 131.896 211.557 131.859 212.359C131.823 213.161 131.805 213.982 131.805 214.82V217.227C131.805 218.138 131.841 218.904 131.914 219.523C132.096 220.581 132.625 221.401 133.5 221.984C134.411 222.531 135.323 222.951 136.234 223.242C136.198 223.789 136.089 224.263 135.906 224.664C135.724 225.029 135.487 225.375 135.195 225.703C134.94 225.995 134.648 226.286 134.32 226.578C133.992 226.87 133.664 227.198 133.336 227.562C133.044 227.38 132.753 227.253 132.461 227.18C132.169 227.107 131.859 227.07 131.531 227.07C131.203 227.034 130.875 226.997 130.547 226.961C130.219 226.924 129.891 226.852 129.562 226.742L128.359 225.102C127.958 224.555 127.521 224.008 127.047 223.461V222.969C127.047 221.984 126.865 221.036 126.5 220.125C126.135 219.214 125.862 218.284 125.68 217.336C125.789 217.008 125.862 216.68 125.898 216.352C125.935 216.023 125.953 215.677 125.953 215.312C125.953 214.583 125.917 213.872 125.844 213.18C125.807 212.487 125.826 211.794 125.898 211.102H125.625C125.297 211.102 124.951 211.193 124.586 211.375C124.221 211.521 123.857 211.703 123.492 211.922C123.164 212.104 122.836 212.286 122.508 212.469C122.216 212.615 121.961 212.688 121.742 212.688C121.633 212.688 121.523 212.669 121.414 212.633C121.305 212.596 121.177 212.578 121.031 212.578C120.849 212.578 120.63 212.651 120.375 212.797C120.12 212.943 119.846 213.107 119.555 213.289C119.227 213.435 118.898 213.581 118.57 213.727C118.242 213.872 117.914 213.945 117.586 213.945C117.076 213.945 116.565 213.727 116.055 213.289C115.982 212.997 115.964 212.724 116 212.469C116 212.214 116 211.94 116 211.648C116 211.357 115.945 211.047 115.836 210.719C116.091 210.245 116.438 209.88 116.875 209.625C117.276 209.333 117.714 209.078 118.188 208.859C118.625 208.604 119.081 208.367 119.555 208.148C120.029 207.893 120.43 207.565 120.758 207.164H121.086C121.596 207.164 122.052 207.055 122.453 206.836C122.891 206.617 123.383 206.526 123.93 206.562C124.112 206.49 124.24 206.216 124.312 205.742L124.531 205.797C125.333 205.797 126.044 205.523 126.664 204.977C127.065 202.716 127.393 200.438 127.648 198.141C127.904 195.844 128.031 193.547 128.031 191.25C128.031 191.031 127.958 190.812 127.812 190.594C127.74 190.302 127.703 190.029 127.703 189.773V188.953C127.703 188.552 127.721 188.133 127.758 187.695C127.794 187.258 127.885 186.82 128.031 186.383C128.396 186.164 128.779 186.055 129.18 186.055C129.654 186.055 130.109 186.128 130.547 186.273C131.021 186.383 131.477 186.474 131.914 186.547C132.242 186.875 132.479 187.24 132.625 187.641C132.807 188.042 132.917 188.461 132.953 188.898C132.99 189.299 132.99 189.719 132.953 190.156C132.953 190.557 132.953 190.958 132.953 191.359C132.953 192.161 133.044 192.945 133.227 193.711C133.409 194.477 133.5 195.224 133.5 195.953C133.5 196.135 133.427 196.281 133.281 196.391C133.172 196.464 133.117 196.701 133.117 197.102C133.117 197.503 133.154 197.922 133.227 198.359C133.299 198.797 133.336 199.234 133.336 199.672C133.336 200.182 133.263 200.711 133.117 201.258C132.971 201.805 132.844 202.333 132.734 202.844C134.922 202.661 137.164 202.388 139.461 202.023C141.758 201.659 143.945 201.076 146.023 200.273C146.06 200.201 146.078 200.091 146.078 199.945C146.078 199.727 146.06 199.508 146.023 199.289C145.987 199.07 145.969 198.833 145.969 198.578C145.969 198.141 146.115 197.794 146.406 197.539C146.224 196.518 146.096 195.497 146.023 194.477C145.951 193.456 145.914 192.435 145.914 191.414V188.297C145.914 187.276 145.896 186.255 145.859 185.234C146.151 185.052 146.461 184.961 146.789 184.961C147.19 184.961 147.555 185.07 147.883 185.289C148.247 185.471 148.667 185.562 149.141 185.562C149.469 185.562 149.742 185.508 149.961 185.398C150.362 185.763 150.635 186.237 150.781 186.82C150.927 187.404 151.055 188.005 151.164 188.625C151.273 189.245 151.383 189.865 151.492 190.484C151.638 191.068 151.911 191.542 152.312 191.906L152.367 192.07C152.367 192.216 152.294 192.326 152.148 192.398C152.003 192.471 151.93 192.617 151.93 192.836V193.055C152.076 193.638 152.185 194.24 152.258 194.859C152.331 195.479 152.385 196.117 152.422 196.773C152.495 197.393 152.586 198.013 152.695 198.633C152.805 199.216 153.005 199.763 153.297 200.273C153.479 200.237 153.716 200.219 154.008 200.219C154.737 200.219 155.302 200.474 155.703 200.984C156.141 201.458 156.523 201.951 156.852 202.461ZM201.039 224.008C200.93 224.518 200.693 224.938 200.328 225.266C200 225.557 199.599 225.794 199.125 225.977C198.651 226.159 198.159 226.286 197.648 226.359C197.174 226.396 196.737 226.414 196.336 226.414C196.154 226.414 195.971 226.414 195.789 226.414C195.643 226.378 195.479 226.359 195.297 226.359C195.115 226.359 195.023 226.451 195.023 226.633C195.023 226.815 194.932 226.943 194.75 227.016C194.568 226.943 194.385 226.888 194.203 226.852C194.021 226.815 193.839 226.797 193.656 226.797C193.401 226.797 193.146 226.815 192.891 226.852C192.672 226.888 192.453 226.906 192.234 226.906C191.943 226.906 191.724 226.87 191.578 226.797C191.469 226.724 191.359 226.651 191.25 226.578C191.177 226.469 191.086 226.359 190.977 226.25C190.904 226.141 190.776 226.049 190.594 225.977C190.339 225.867 190.12 225.849 189.938 225.922C189.792 225.995 189.555 225.885 189.227 225.594C188.789 225.229 188.406 224.792 188.078 224.281C187.786 223.734 187.495 223.169 187.203 222.586C186.911 222.003 186.602 221.419 186.273 220.836C185.945 220.253 185.562 219.742 185.125 219.305H184.688C184.031 219.305 183.576 219.578 183.32 220.125C183.138 220.016 182.956 219.888 182.773 219.742C182.591 219.56 182.391 219.414 182.172 219.305C181.333 219.56 180.458 219.779 179.547 219.961C178.635 220.143 177.724 220.234 176.812 220.234H176.047C175.828 220.234 175.591 220.198 175.336 220.125C174.971 220.271 174.643 220.453 174.352 220.672C174.06 220.854 173.732 220.945 173.367 220.945C173.148 220.945 172.893 220.872 172.602 220.727C172.383 220.727 172.273 220.818 172.273 221C172.31 221.182 172.201 221.273 171.945 221.273H171.453C170.943 221.273 170.432 221.292 169.922 221.328C169.448 221.365 168.956 221.383 168.445 221.383C167.753 221.383 167.042 221.292 166.312 221.109C166.13 221.219 165.93 221.273 165.711 221.273C165.565 221.346 165.456 221.474 165.383 221.656C165.31 221.802 165.237 221.948 165.164 222.094C165.091 222.203 164.982 222.312 164.836 222.422C164.727 222.495 164.562 222.513 164.344 222.477C164.271 222.914 164.089 223.26 163.797 223.516C163.505 223.771 163.359 224.154 163.359 224.664C162.958 224.883 162.63 225.156 162.375 225.484C162.12 225.812 161.865 226.159 161.609 226.523C161.354 226.888 161.081 227.234 160.789 227.562C160.534 227.891 160.206 228.146 159.805 228.328C159.622 228.547 159.568 228.893 159.641 229.367C159.24 229.695 158.747 229.987 158.164 230.242C157.581 230.497 157.034 230.625 156.523 230.625C155.466 230.625 154.737 230.06 154.336 228.93C154.336 228.565 154.372 228.182 154.445 227.781C154.482 227.344 154.555 226.943 154.664 226.578C154.773 226.177 154.938 225.831 155.156 225.539C155.375 225.211 155.685 224.974 156.086 224.828C156.086 224.5 155.977 224.281 155.758 224.172C155.539 224.026 155.448 223.789 155.484 223.461C156.469 222.987 157.326 222.367 158.055 221.602C158.784 220.836 159.44 220.034 160.023 219.195C160.643 218.32 161.263 217.445 161.883 216.57C162.503 215.695 163.195 214.911 163.961 214.219V213.07C165.055 211.904 165.766 210.591 166.094 209.133C166.495 209.06 166.75 208.878 166.859 208.586C167.005 208.294 167.078 207.948 167.078 207.547C167.26 207.547 167.37 207.474 167.406 207.328C167.479 207.146 167.643 207.091 167.898 207.164C168.227 206.289 168.591 205.487 168.992 204.758C169.393 204.029 169.794 203.299 170.195 202.57C170.596 201.805 170.943 201.021 171.234 200.219C171.562 199.417 171.799 198.523 171.945 197.539C172.456 197.503 172.729 197.266 172.766 196.828C172.839 196.354 172.911 195.935 172.984 195.57C173.531 195.06 173.932 194.458 174.188 193.766C174.479 193.073 174.734 192.362 174.953 191.633C175.172 190.867 175.409 190.12 175.664 189.391C175.956 188.625 176.357 187.951 176.867 187.367V187.203C176.867 187.021 176.794 186.911 176.648 186.875C176.503 186.802 176.43 186.674 176.43 186.492C176.466 186.456 176.484 186.419 176.484 186.383C176.922 186.201 177.25 185.909 177.469 185.508C177.688 185.07 178.016 184.76 178.453 184.578C179.219 185.198 179.893 185.581 180.477 185.727C181.06 185.836 181.826 185.927 182.773 186C183.247 186.51 183.503 187.13 183.539 187.859C183.612 188.552 183.74 189.245 183.922 189.938C184.214 191.104 184.523 192.253 184.852 193.383C185.216 194.477 185.49 195.607 185.672 196.773C185.781 197.466 185.982 198.122 186.273 198.742C186.565 199.362 186.766 200 186.875 200.656C186.948 201.167 186.948 201.75 186.875 202.406C186.802 203.026 186.875 203.573 187.094 204.047L187.477 204.922C187.659 205.323 187.805 205.742 187.914 206.18C188.06 206.617 188.188 207.055 188.297 207.492C188.589 208.586 188.844 209.771 189.062 211.047C189.318 212.286 189.701 213.417 190.211 214.438C190.393 214.802 190.667 215.057 191.031 215.203C191.432 215.349 191.87 215.458 192.344 215.531C192.818 215.568 193.273 215.586 193.711 215.586C194.185 215.549 194.586 215.531 194.914 215.531H195.461C195.68 215.531 195.898 215.568 196.117 215.641C196.263 215.932 196.336 216.188 196.336 216.406C196.336 216.844 196.19 217.19 195.898 217.445C195.607 217.701 195.461 217.992 195.461 218.32C195.461 218.503 195.534 218.703 195.68 218.922C195.534 218.885 195.315 218.867 195.023 218.867C194.185 218.867 193.365 219.013 192.562 219.305C192.854 219.924 193.237 220.453 193.711 220.891C194.221 221.292 194.75 221.674 195.297 222.039C195.661 221.747 196.044 221.602 196.445 221.602C196.883 221.602 197.284 221.711 197.648 221.93C198.049 222.112 198.469 222.203 198.906 222.203C199.234 222.203 199.471 222.148 199.617 222.039C199.909 222.367 200.146 222.714 200.328 223.078C200.51 223.406 200.747 223.716 201.039 224.008ZM183.922 215.258C183.849 214.638 183.721 214.201 183.539 213.945C183.393 213.654 183.266 213.307 183.156 212.906C183.01 212.396 182.901 211.849 182.828 211.266C182.792 210.682 182.719 210.117 182.609 209.57C182.354 208.331 182.062 207.091 181.734 205.852C181.443 204.612 181.06 203.409 180.586 202.242C180.732 202.023 180.805 201.823 180.805 201.641V201.477C180.477 201.112 180.24 200.674 180.094 200.164C179.948 199.617 179.802 199.089 179.656 198.578C179.547 198.031 179.383 197.539 179.164 197.102C178.982 196.628 178.672 196.245 178.234 195.953C178.125 196.172 178.07 196.427 178.07 196.719C178.07 196.974 178.089 197.211 178.125 197.43C178.198 197.648 178.234 197.885 178.234 198.141C177.87 198.323 177.596 198.615 177.414 199.016C177.268 199.38 177.013 199.672 176.648 199.891C176.357 201.057 175.938 202.169 175.391 203.227C174.844 204.247 174.26 205.268 173.641 206.289C173.057 207.31 172.492 208.349 171.945 209.406C171.398 210.427 170.961 211.503 170.633 212.633C170.159 212.961 169.831 213.38 169.648 213.891C169.503 214.401 169.43 214.911 169.43 215.422C169.758 215.604 170.122 215.714 170.523 215.75C170.961 215.75 171.38 215.75 171.781 215.75C172.182 215.75 172.565 215.786 172.93 215.859C173.294 215.932 173.622 216.115 173.914 216.406C174.388 216.26 174.898 216.169 175.445 216.133C176.029 216.06 176.503 215.896 176.867 215.641C177.596 215.896 178.38 216.023 179.219 216.023C179.656 216.023 180.076 215.987 180.477 215.914C180.914 215.841 181.333 215.75 181.734 215.641C182.062 215.714 182.318 215.841 182.5 216.023C182.682 216.169 182.956 216.224 183.32 216.188C183.503 216.042 183.612 215.896 183.648 215.75C183.685 215.568 183.776 215.404 183.922 215.258Z" fill="white"/>
</svg>
